G04 #@! TF.GenerationSoftware,KiCad,Pcbnew,8.0.4*
G04 #@! TF.CreationDate,2024-09-23T19:03:46-05:00*
G04 #@! TF.ProjectId,STM32_board,53544d33-325f-4626-9f61-72642e6b6963,rev?*
G04 #@! TF.SameCoordinates,Original*
G04 #@! TF.FileFunction,Paste,Top*
G04 #@! TF.FilePolarity,Positive*
%FSLAX46Y46*%
G04 Gerber Fmt 4.6, Leading zero omitted, Abs format (unit mm)*
G04 Created by KiCad (PCBNEW 8.0.4) date 2024-09-23 19:03:46*
%MOMM*%
%LPD*%
G01*
G04 APERTURE LIST*
G04 Aperture macros list*
%AMRoundRect*
0 Rectangle with rounded corners*
0 $1 Rounding radius*
0 $2 $3 $4 $5 $6 $7 $8 $9 X,Y pos of 4 corners*
0 Add a 4 corners polygon primitive as box body*
4,1,4,$2,$3,$4,$5,$6,$7,$8,$9,$2,$3,0*
0 Add four circle primitives for the rounded corners*
1,1,$1+$1,$2,$3*
1,1,$1+$1,$4,$5*
1,1,$1+$1,$6,$7*
1,1,$1+$1,$8,$9*
0 Add four rect primitives between the rounded corners*
20,1,$1+$1,$2,$3,$4,$5,0*
20,1,$1+$1,$4,$5,$6,$7,0*
20,1,$1+$1,$6,$7,$8,$9,0*
20,1,$1+$1,$8,$9,$2,$3,0*%
G04 Aperture macros list end*
%ADD10RoundRect,0.225000X0.225000X0.250000X-0.225000X0.250000X-0.225000X-0.250000X0.225000X-0.250000X0*%
%ADD11RoundRect,0.140000X-0.170000X0.140000X-0.170000X-0.140000X0.170000X-0.140000X0.170000X0.140000X0*%
%ADD12RoundRect,0.140000X-0.140000X-0.170000X0.140000X-0.170000X0.140000X0.170000X-0.140000X0.170000X0*%
%ADD13RoundRect,0.425000X-0.425000X-0.425000X0.425000X-0.425000X0.425000X0.425000X-0.425000X0.425000X0*%
%ADD14RoundRect,0.250000X0.320000X0.320000X-0.320000X0.320000X-0.320000X-0.320000X0.320000X-0.320000X0*%
%ADD15RoundRect,0.075000X0.437500X0.075000X-0.437500X0.075000X-0.437500X-0.075000X0.437500X-0.075000X0*%
%ADD16RoundRect,0.075000X0.075000X0.437500X-0.075000X0.437500X-0.075000X-0.437500X0.075000X-0.437500X0*%
%ADD17RoundRect,0.135000X-0.135000X-0.185000X0.135000X-0.185000X0.135000X0.185000X-0.135000X0.185000X0*%
%ADD18RoundRect,0.218750X-0.218750X-0.256250X0.218750X-0.256250X0.218750X0.256250X-0.218750X0.256250X0*%
%ADD19RoundRect,0.250000X0.250000X0.475000X-0.250000X0.475000X-0.250000X-0.475000X0.250000X-0.475000X0*%
%ADD20RoundRect,0.225000X-0.250000X0.225000X-0.250000X-0.225000X0.250000X-0.225000X0.250000X0.225000X0*%
%ADD21RoundRect,0.225000X-0.225000X-0.250000X0.225000X-0.250000X0.225000X0.250000X-0.225000X0.250000X0*%
%ADD22RoundRect,0.150000X-0.150000X-0.700000X0.150000X-0.700000X0.150000X0.700000X-0.150000X0.700000X0*%
%ADD23RoundRect,0.250000X-0.250000X-1.100000X0.250000X-1.100000X0.250000X1.100000X-0.250000X1.100000X0*%
%ADD24RoundRect,0.150000X0.587500X0.150000X-0.587500X0.150000X-0.587500X-0.150000X0.587500X-0.150000X0*%
%ADD25RoundRect,0.135000X0.135000X0.185000X-0.135000X0.185000X-0.135000X-0.185000X0.135000X-0.185000X0*%
%ADD26R,1.800000X2.100000*%
%ADD27RoundRect,0.140000X0.140000X0.170000X-0.140000X0.170000X-0.140000X-0.170000X0.140000X-0.170000X0*%
%ADD28RoundRect,0.225000X-0.375000X0.225000X-0.375000X-0.225000X0.375000X-0.225000X0.375000X0.225000X0*%
%ADD29RoundRect,0.135000X-0.185000X0.135000X-0.185000X-0.135000X0.185000X-0.135000X0.185000X0.135000X0*%
%ADD30RoundRect,0.250000X-0.312500X-1.450000X0.312500X-1.450000X0.312500X1.450000X-0.312500X1.450000X0*%
%ADD31RoundRect,0.150000X0.512500X0.150000X-0.512500X0.150000X-0.512500X-0.150000X0.512500X-0.150000X0*%
%ADD32RoundRect,0.218750X-0.256250X0.218750X-0.256250X-0.218750X0.256250X-0.218750X0.256250X0.218750X0*%
%ADD33RoundRect,0.079500X0.079500X0.100500X-0.079500X0.100500X-0.079500X-0.100500X0.079500X-0.100500X0*%
%ADD34RoundRect,0.425000X0.425000X0.425000X-0.425000X0.425000X-0.425000X-0.425000X0.425000X-0.425000X0*%
%ADD35RoundRect,0.250000X0.550000X-1.050000X0.550000X1.050000X-0.550000X1.050000X-0.550000X-1.050000X0*%
%ADD36RoundRect,0.140000X0.170000X-0.140000X0.170000X0.140000X-0.170000X0.140000X-0.170000X-0.140000X0*%
%ADD37RoundRect,0.135000X0.185000X-0.135000X0.185000X0.135000X-0.185000X0.135000X-0.185000X-0.135000X0*%
%ADD38RoundRect,0.075000X-0.725000X-0.075000X0.725000X-0.075000X0.725000X0.075000X-0.725000X0.075000X0*%
%ADD39RoundRect,0.075000X-0.075000X-0.725000X0.075000X-0.725000X0.075000X0.725000X-0.075000X0.725000X0*%
%ADD40RoundRect,0.250000X0.475000X-0.250000X0.475000X0.250000X-0.475000X0.250000X-0.475000X-0.250000X0*%
%ADD41RoundRect,0.375000X-0.375000X0.625000X-0.375000X-0.625000X0.375000X-0.625000X0.375000X0.625000X0*%
%ADD42RoundRect,0.500000X-1.400000X0.500000X-1.400000X-0.500000X1.400000X-0.500000X1.400000X0.500000X0*%
%ADD43RoundRect,0.250000X-0.250000X-0.475000X0.250000X-0.475000X0.250000X0.475000X-0.250000X0.475000X0*%
%ADD44R,0.900000X1.500000*%
%ADD45R,1.500000X0.900000*%
%ADD46R,0.900000X0.900000*%
%ADD47RoundRect,0.225000X0.250000X-0.225000X0.250000X0.225000X-0.250000X0.225000X-0.250000X-0.225000X0*%
G04 APERTURE END LIST*
D10*
X109435000Y-111600000D03*
X107885000Y-111600000D03*
D11*
X173500000Y-102520000D03*
X173500000Y-103480000D03*
D12*
X165520000Y-112500000D03*
X166480000Y-112500000D03*
D13*
X120325000Y-78850000D03*
X112425000Y-78850000D03*
D14*
X150920000Y-83420000D03*
X150920000Y-82000000D03*
X150920000Y-80580000D03*
X149500000Y-83420000D03*
X149500000Y-82000000D03*
X149500000Y-80580000D03*
X148080000Y-83420000D03*
X148080000Y-82000000D03*
X148080000Y-80580000D03*
D15*
X152337500Y-83950000D03*
X152337500Y-83300000D03*
X152337500Y-82650000D03*
X152337500Y-82000000D03*
X152337500Y-81350000D03*
X152337500Y-80700000D03*
X152337500Y-80050000D03*
D16*
X151450000Y-79162500D03*
X150800000Y-79162500D03*
X150150000Y-79162500D03*
X149500000Y-79162500D03*
X148850000Y-79162500D03*
X148200000Y-79162500D03*
X147550000Y-79162500D03*
D15*
X146662500Y-80050000D03*
X146662500Y-80700000D03*
X146662500Y-81350000D03*
X146662500Y-82000000D03*
X146662500Y-82650000D03*
X146662500Y-83300000D03*
X146662500Y-83950000D03*
D16*
X147550000Y-84837500D03*
X148200000Y-84837500D03*
X148850000Y-84837500D03*
X149500000Y-84837500D03*
X150150000Y-84837500D03*
X150800000Y-84837500D03*
X151450000Y-84837500D03*
D17*
X147152500Y-86550000D03*
X148172500Y-86550000D03*
D18*
X170437500Y-102500000D03*
X172012500Y-102500000D03*
D19*
X109610000Y-114600000D03*
X107710000Y-114600000D03*
D20*
X155500000Y-108225000D03*
X155500000Y-109775000D03*
D10*
X139775000Y-97000000D03*
X138225000Y-97000000D03*
D21*
X123975000Y-85425000D03*
X125525000Y-85425000D03*
D22*
X132050000Y-120900000D03*
X133300000Y-120900000D03*
X134550000Y-120900000D03*
X135800000Y-120900000D03*
X137050000Y-120900000D03*
X138300000Y-120900000D03*
D23*
X130200000Y-124100000D03*
X140150000Y-124100000D03*
D24*
X168437500Y-108450000D03*
X168437500Y-106550000D03*
X166562500Y-107500000D03*
D25*
X159510000Y-118500000D03*
X158490000Y-118500000D03*
D26*
X131850000Y-97050000D03*
X131850000Y-99950000D03*
X134150000Y-99950000D03*
X134150000Y-97050000D03*
D27*
X138305000Y-103775000D03*
X137345000Y-103775000D03*
D10*
X139775000Y-101500000D03*
X138225000Y-101500000D03*
D11*
X137000000Y-99020000D03*
X137000000Y-99980000D03*
D27*
X138311250Y-102781250D03*
X137351250Y-102781250D03*
D28*
X163000000Y-102850000D03*
X163000000Y-106150000D03*
D17*
X165190000Y-89675000D03*
X166210000Y-89675000D03*
D29*
X170500000Y-91990000D03*
X170500000Y-93010000D03*
D30*
X174862500Y-103500000D03*
X179137500Y-103500000D03*
D29*
X122900000Y-77965000D03*
X122900000Y-78985000D03*
D27*
X135480000Y-106500000D03*
X134520000Y-106500000D03*
D31*
X167637500Y-95700000D03*
X167637500Y-94750000D03*
X167637500Y-93800000D03*
X165362500Y-93800000D03*
X165362500Y-94750000D03*
X165362500Y-95700000D03*
D27*
X162980000Y-112500000D03*
X162020000Y-112500000D03*
D32*
X139831250Y-102993750D03*
X139831250Y-104568750D03*
D10*
X139775000Y-95000000D03*
X138225000Y-95000000D03*
D27*
X138311250Y-104781250D03*
X137351250Y-104781250D03*
D20*
X144000000Y-108225000D03*
X144000000Y-109775000D03*
D21*
X170450000Y-104000000D03*
X172000000Y-104000000D03*
D33*
X168225000Y-89675000D03*
X167535000Y-89675000D03*
D34*
X124300000Y-113725000D03*
X116400000Y-113725000D03*
D20*
X157000000Y-108225000D03*
X157000000Y-109775000D03*
D35*
X167000000Y-102800000D03*
X167000000Y-99200000D03*
D21*
X159225000Y-92725000D03*
X160775000Y-92725000D03*
D25*
X149115000Y-88550000D03*
X150135000Y-88550000D03*
D22*
X144250000Y-120900000D03*
X145500000Y-120900000D03*
X146750000Y-120900000D03*
X148000000Y-120900000D03*
D23*
X142400000Y-124100000D03*
X149850000Y-124100000D03*
D36*
X137000000Y-97980000D03*
X137000000Y-97020000D03*
D37*
X127660000Y-105110000D03*
X127660000Y-104090000D03*
D32*
X137000000Y-106712500D03*
X137000000Y-108287500D03*
D10*
X112435000Y-111600000D03*
X110885000Y-111600000D03*
D21*
X159225000Y-91225000D03*
X160775000Y-91225000D03*
D17*
X155990000Y-118500000D03*
X157010000Y-118500000D03*
D38*
X141825000Y-92550000D03*
X141825000Y-93050000D03*
X141825000Y-93550000D03*
X141825000Y-94050000D03*
X141825000Y-94550000D03*
X141825000Y-95050000D03*
X141825000Y-95550000D03*
X141825000Y-96050000D03*
X141825000Y-96550000D03*
X141825000Y-97050000D03*
X141825000Y-97550000D03*
X141825000Y-98050000D03*
X141825000Y-98550000D03*
X141825000Y-99050000D03*
X141825000Y-99550000D03*
X141825000Y-100050000D03*
X141825000Y-100550000D03*
X141825000Y-101050000D03*
X141825000Y-101550000D03*
X141825000Y-102050000D03*
X141825000Y-102550000D03*
X141825000Y-103050000D03*
X141825000Y-103550000D03*
X141825000Y-104050000D03*
X141825000Y-104550000D03*
D39*
X143500000Y-106225000D03*
X144000000Y-106225000D03*
X144500000Y-106225000D03*
X145000000Y-106225000D03*
X145500000Y-106225000D03*
X146000000Y-106225000D03*
X146500000Y-106225000D03*
X147000000Y-106225000D03*
X147500000Y-106225000D03*
X148000000Y-106225000D03*
X148500000Y-106225000D03*
X149000000Y-106225000D03*
X149500000Y-106225000D03*
X150000000Y-106225000D03*
X150500000Y-106225000D03*
X151000000Y-106225000D03*
X151500000Y-106225000D03*
X152000000Y-106225000D03*
X152500000Y-106225000D03*
X153000000Y-106225000D03*
X153500000Y-106225000D03*
X154000000Y-106225000D03*
X154500000Y-106225000D03*
X155000000Y-106225000D03*
X155500000Y-106225000D03*
D38*
X157175000Y-104550000D03*
X157175000Y-104050000D03*
X157175000Y-103550000D03*
X157175000Y-103050000D03*
X157175000Y-102550000D03*
X157175000Y-102050000D03*
X157175000Y-101550000D03*
X157175000Y-101050000D03*
X157175000Y-100550000D03*
X157175000Y-100050000D03*
X157175000Y-99550000D03*
X157175000Y-99050000D03*
X157175000Y-98550000D03*
X157175000Y-98050000D03*
X157175000Y-97550000D03*
X157175000Y-97050000D03*
X157175000Y-96550000D03*
X157175000Y-96050000D03*
X157175000Y-95550000D03*
X157175000Y-95050000D03*
X157175000Y-94550000D03*
X157175000Y-94050000D03*
X157175000Y-93550000D03*
X157175000Y-93050000D03*
X157175000Y-92550000D03*
D39*
X155500000Y-90875000D03*
X155000000Y-90875000D03*
X154500000Y-90875000D03*
X154000000Y-90875000D03*
X153500000Y-90875000D03*
X153000000Y-90875000D03*
X152500000Y-90875000D03*
X152000000Y-90875000D03*
X151500000Y-90875000D03*
X151000000Y-90875000D03*
X150500000Y-90875000D03*
X150000000Y-90875000D03*
X149500000Y-90875000D03*
X149000000Y-90875000D03*
X148500000Y-90875000D03*
X148000000Y-90875000D03*
X147500000Y-90875000D03*
X147000000Y-90875000D03*
X146500000Y-90875000D03*
X146000000Y-90875000D03*
X145500000Y-90875000D03*
X145000000Y-90875000D03*
X144500000Y-90875000D03*
X144000000Y-90875000D03*
X143500000Y-90875000D03*
D40*
X141050000Y-90950000D03*
X141050000Y-89050000D03*
D37*
X170500000Y-98010000D03*
X170500000Y-96990000D03*
D41*
X167800000Y-114350000D03*
X165500000Y-114350000D03*
D42*
X165500000Y-120650000D03*
D41*
X163200000Y-114350000D03*
D10*
X139775000Y-100000000D03*
X138225000Y-100000000D03*
D43*
X149875000Y-86700000D03*
X151775000Y-86700000D03*
D44*
X108240000Y-91750000D03*
X109510000Y-91750000D03*
X110780000Y-91750000D03*
X112050000Y-91750000D03*
X113320000Y-91750000D03*
X114590000Y-91750000D03*
X115860000Y-91750000D03*
X117130000Y-91750000D03*
X118400000Y-91750000D03*
X119670000Y-91750000D03*
X120940000Y-91750000D03*
X122210000Y-91750000D03*
X123480000Y-91750000D03*
X124750000Y-91750000D03*
D45*
X126000000Y-93515000D03*
X126000000Y-94785000D03*
X126000000Y-96055000D03*
X126000000Y-97325000D03*
X126000000Y-98595000D03*
X126000000Y-99865000D03*
X126000000Y-101135000D03*
X126000000Y-102405000D03*
X126000000Y-103675000D03*
X126000000Y-104945000D03*
X126000000Y-106215000D03*
X126000000Y-107485000D03*
D44*
X124750000Y-109250000D03*
X123480000Y-109250000D03*
X122210000Y-109250000D03*
X120940000Y-109250000D03*
X119670000Y-109250000D03*
X118400000Y-109250000D03*
X117130000Y-109250000D03*
X115860000Y-109250000D03*
X114590000Y-109250000D03*
X113320000Y-109250000D03*
X112050000Y-109250000D03*
X110780000Y-109250000D03*
X109510000Y-109250000D03*
X108240000Y-109250000D03*
D46*
X117360000Y-100600000D03*
X115960000Y-100600000D03*
X114560000Y-100600000D03*
X117360000Y-102000000D03*
X115960000Y-102000000D03*
X114560000Y-102000000D03*
X117360000Y-103400000D03*
X115960000Y-103400000D03*
X114560000Y-103400000D03*
D17*
X110990000Y-115000000D03*
X112010000Y-115000000D03*
D13*
X120250000Y-83125000D03*
X112350000Y-83125000D03*
D22*
X154175000Y-120900000D03*
X155425000Y-120900000D03*
X156675000Y-120900000D03*
X157925000Y-120900000D03*
D23*
X152325000Y-124100000D03*
X159775000Y-124100000D03*
D47*
X143075000Y-88825000D03*
X143075000Y-87275000D03*
D27*
X135480000Y-108500000D03*
X134520000Y-108500000D03*
D29*
X145200000Y-83190000D03*
X145200000Y-84210000D03*
D27*
X134495000Y-107500000D03*
X135455000Y-107500000D03*
M02*
