G04 #@! TF.GenerationSoftware,KiCad,Pcbnew,8.0.4*
G04 #@! TF.CreationDate,2024-09-23T19:03:46-05:00*
G04 #@! TF.ProjectId,STM32_board,53544d33-325f-4626-9f61-72642e6b6963,rev?*
G04 #@! TF.SameCoordinates,Original*
G04 #@! TF.FileFunction,Copper,L1,Top*
G04 #@! TF.FilePolarity,Positive*
%FSLAX46Y46*%
G04 Gerber Fmt 4.6, Leading zero omitted, Abs format (unit mm)*
G04 Created by KiCad (PCBNEW 8.0.4) date 2024-09-23 19:03:46*
%MOMM*%
%LPD*%
G01*
G04 APERTURE LIST*
G04 Aperture macros list*
%AMRoundRect*
0 Rectangle with rounded corners*
0 $1 Rounding radius*
0 $2 $3 $4 $5 $6 $7 $8 $9 X,Y pos of 4 corners*
0 Add a 4 corners polygon primitive as box body*
4,1,4,$2,$3,$4,$5,$6,$7,$8,$9,$2,$3,0*
0 Add four circle primitives for the rounded corners*
1,1,$1+$1,$2,$3*
1,1,$1+$1,$4,$5*
1,1,$1+$1,$6,$7*
1,1,$1+$1,$8,$9*
0 Add four rect primitives between the rounded corners*
20,1,$1+$1,$2,$3,$4,$5,0*
20,1,$1+$1,$4,$5,$6,$7,0*
20,1,$1+$1,$6,$7,$8,$9,0*
20,1,$1+$1,$8,$9,$2,$3,0*%
G04 Aperture macros list end*
G04 #@! TA.AperFunction,SMDPad,CuDef*
%ADD10RoundRect,0.225000X0.225000X0.250000X-0.225000X0.250000X-0.225000X-0.250000X0.225000X-0.250000X0*%
G04 #@! TD*
G04 #@! TA.AperFunction,SMDPad,CuDef*
%ADD11RoundRect,0.140000X-0.170000X0.140000X-0.170000X-0.140000X0.170000X-0.140000X0.170000X0.140000X0*%
G04 #@! TD*
G04 #@! TA.AperFunction,SMDPad,CuDef*
%ADD12RoundRect,0.140000X-0.140000X-0.170000X0.140000X-0.170000X0.140000X0.170000X-0.140000X0.170000X0*%
G04 #@! TD*
G04 #@! TA.AperFunction,SMDPad,CuDef*
%ADD13RoundRect,0.425000X-0.425000X-0.425000X0.425000X-0.425000X0.425000X0.425000X-0.425000X0.425000X0*%
G04 #@! TD*
G04 #@! TA.AperFunction,SMDPad,CuDef*
%ADD14RoundRect,0.075000X0.437500X0.075000X-0.437500X0.075000X-0.437500X-0.075000X0.437500X-0.075000X0*%
G04 #@! TD*
G04 #@! TA.AperFunction,SMDPad,CuDef*
%ADD15RoundRect,0.075000X0.075000X0.437500X-0.075000X0.437500X-0.075000X-0.437500X0.075000X-0.437500X0*%
G04 #@! TD*
G04 #@! TA.AperFunction,HeatsinkPad*
%ADD16R,4.250000X4.250000*%
G04 #@! TD*
G04 #@! TA.AperFunction,SMDPad,CuDef*
%ADD17RoundRect,0.135000X-0.135000X-0.185000X0.135000X-0.185000X0.135000X0.185000X-0.135000X0.185000X0*%
G04 #@! TD*
G04 #@! TA.AperFunction,ComponentPad*
%ADD18R,1.700000X1.700000*%
G04 #@! TD*
G04 #@! TA.AperFunction,ComponentPad*
%ADD19O,1.700000X1.700000*%
G04 #@! TD*
G04 #@! TA.AperFunction,SMDPad,CuDef*
%ADD20RoundRect,0.218750X-0.218750X-0.256250X0.218750X-0.256250X0.218750X0.256250X-0.218750X0.256250X0*%
G04 #@! TD*
G04 #@! TA.AperFunction,SMDPad,CuDef*
%ADD21RoundRect,0.250000X0.250000X0.475000X-0.250000X0.475000X-0.250000X-0.475000X0.250000X-0.475000X0*%
G04 #@! TD*
G04 #@! TA.AperFunction,SMDPad,CuDef*
%ADD22RoundRect,0.225000X-0.250000X0.225000X-0.250000X-0.225000X0.250000X-0.225000X0.250000X0.225000X0*%
G04 #@! TD*
G04 #@! TA.AperFunction,SMDPad,CuDef*
%ADD23RoundRect,0.225000X-0.225000X-0.250000X0.225000X-0.250000X0.225000X0.250000X-0.225000X0.250000X0*%
G04 #@! TD*
G04 #@! TA.AperFunction,SMDPad,CuDef*
%ADD24RoundRect,0.150000X-0.150000X-0.700000X0.150000X-0.700000X0.150000X0.700000X-0.150000X0.700000X0*%
G04 #@! TD*
G04 #@! TA.AperFunction,SMDPad,CuDef*
%ADD25RoundRect,0.250000X-0.250000X-1.100000X0.250000X-1.100000X0.250000X1.100000X-0.250000X1.100000X0*%
G04 #@! TD*
G04 #@! TA.AperFunction,SMDPad,CuDef*
%ADD26RoundRect,0.150000X0.587500X0.150000X-0.587500X0.150000X-0.587500X-0.150000X0.587500X-0.150000X0*%
G04 #@! TD*
G04 #@! TA.AperFunction,SMDPad,CuDef*
%ADD27RoundRect,0.135000X0.135000X0.185000X-0.135000X0.185000X-0.135000X-0.185000X0.135000X-0.185000X0*%
G04 #@! TD*
G04 #@! TA.AperFunction,SMDPad,CuDef*
%ADD28R,1.800000X2.100000*%
G04 #@! TD*
G04 #@! TA.AperFunction,SMDPad,CuDef*
%ADD29RoundRect,0.140000X0.140000X0.170000X-0.140000X0.170000X-0.140000X-0.170000X0.140000X-0.170000X0*%
G04 #@! TD*
G04 #@! TA.AperFunction,SMDPad,CuDef*
%ADD30RoundRect,0.225000X-0.375000X0.225000X-0.375000X-0.225000X0.375000X-0.225000X0.375000X0.225000X0*%
G04 #@! TD*
G04 #@! TA.AperFunction,SMDPad,CuDef*
%ADD31RoundRect,0.135000X-0.185000X0.135000X-0.185000X-0.135000X0.185000X-0.135000X0.185000X0.135000X0*%
G04 #@! TD*
G04 #@! TA.AperFunction,SMDPad,CuDef*
%ADD32RoundRect,0.250000X-0.312500X-1.450000X0.312500X-1.450000X0.312500X1.450000X-0.312500X1.450000X0*%
G04 #@! TD*
G04 #@! TA.AperFunction,SMDPad,CuDef*
%ADD33RoundRect,0.150000X0.512500X0.150000X-0.512500X0.150000X-0.512500X-0.150000X0.512500X-0.150000X0*%
G04 #@! TD*
G04 #@! TA.AperFunction,SMDPad,CuDef*
%ADD34RoundRect,0.218750X-0.256250X0.218750X-0.256250X-0.218750X0.256250X-0.218750X0.256250X0.218750X0*%
G04 #@! TD*
G04 #@! TA.AperFunction,ComponentPad*
%ADD35R,2.600000X2.600000*%
G04 #@! TD*
G04 #@! TA.AperFunction,ComponentPad*
%ADD36C,2.600000*%
G04 #@! TD*
G04 #@! TA.AperFunction,SMDPad,CuDef*
%ADD37RoundRect,0.100000X0.130000X0.100000X-0.130000X0.100000X-0.130000X-0.100000X0.130000X-0.100000X0*%
G04 #@! TD*
G04 #@! TA.AperFunction,SMDPad,CuDef*
%ADD38RoundRect,0.425000X0.425000X0.425000X-0.425000X0.425000X-0.425000X-0.425000X0.425000X-0.425000X0*%
G04 #@! TD*
G04 #@! TA.AperFunction,SMDPad,CuDef*
%ADD39RoundRect,0.250000X0.550000X-1.050000X0.550000X1.050000X-0.550000X1.050000X-0.550000X-1.050000X0*%
G04 #@! TD*
G04 #@! TA.AperFunction,SMDPad,CuDef*
%ADD40RoundRect,0.140000X0.170000X-0.140000X0.170000X0.140000X-0.170000X0.140000X-0.170000X-0.140000X0*%
G04 #@! TD*
G04 #@! TA.AperFunction,SMDPad,CuDef*
%ADD41RoundRect,0.135000X0.185000X-0.135000X0.185000X0.135000X-0.185000X0.135000X-0.185000X-0.135000X0*%
G04 #@! TD*
G04 #@! TA.AperFunction,SMDPad,CuDef*
%ADD42RoundRect,0.075000X-0.725000X-0.075000X0.725000X-0.075000X0.725000X0.075000X-0.725000X0.075000X0*%
G04 #@! TD*
G04 #@! TA.AperFunction,SMDPad,CuDef*
%ADD43RoundRect,0.075000X-0.075000X-0.725000X0.075000X-0.725000X0.075000X0.725000X-0.075000X0.725000X0*%
G04 #@! TD*
G04 #@! TA.AperFunction,SMDPad,CuDef*
%ADD44RoundRect,0.250000X0.475000X-0.250000X0.475000X0.250000X-0.475000X0.250000X-0.475000X-0.250000X0*%
G04 #@! TD*
G04 #@! TA.AperFunction,SMDPad,CuDef*
%ADD45RoundRect,0.375000X-0.375000X0.625000X-0.375000X-0.625000X0.375000X-0.625000X0.375000X0.625000X0*%
G04 #@! TD*
G04 #@! TA.AperFunction,SMDPad,CuDef*
%ADD46RoundRect,0.500000X-1.400000X0.500000X-1.400000X-0.500000X1.400000X-0.500000X1.400000X0.500000X0*%
G04 #@! TD*
G04 #@! TA.AperFunction,SMDPad,CuDef*
%ADD47RoundRect,0.250000X-0.250000X-0.475000X0.250000X-0.475000X0.250000X0.475000X-0.250000X0.475000X0*%
G04 #@! TD*
G04 #@! TA.AperFunction,HeatsinkPad*
%ADD48C,0.600000*%
G04 #@! TD*
G04 #@! TA.AperFunction,SMDPad,CuDef*
%ADD49R,3.900000X3.900000*%
G04 #@! TD*
G04 #@! TA.AperFunction,SMDPad,CuDef*
%ADD50R,0.900000X1.500000*%
G04 #@! TD*
G04 #@! TA.AperFunction,SMDPad,CuDef*
%ADD51R,1.500000X0.900000*%
G04 #@! TD*
G04 #@! TA.AperFunction,SMDPad,CuDef*
%ADD52RoundRect,0.225000X0.250000X-0.225000X0.250000X0.225000X-0.250000X0.225000X-0.250000X-0.225000X0*%
G04 #@! TD*
G04 #@! TA.AperFunction,ComponentPad*
%ADD53O,2.400000X0.900000*%
G04 #@! TD*
G04 #@! TA.AperFunction,ComponentPad*
%ADD54O,1.700000X0.900000*%
G04 #@! TD*
G04 #@! TA.AperFunction,ComponentPad*
%ADD55C,0.700000*%
G04 #@! TD*
G04 #@! TA.AperFunction,ViaPad*
%ADD56C,0.600000*%
G04 #@! TD*
G04 #@! TA.AperFunction,ViaPad*
%ADD57C,0.700000*%
G04 #@! TD*
G04 #@! TA.AperFunction,Conductor*
%ADD58C,0.200000*%
G04 #@! TD*
G04 #@! TA.AperFunction,Conductor*
%ADD59C,0.300000*%
G04 #@! TD*
G04 #@! TA.AperFunction,Conductor*
%ADD60C,0.500000*%
G04 #@! TD*
G04 APERTURE END LIST*
D10*
X109435000Y-111600000D03*
X107885000Y-111600000D03*
D11*
X173500000Y-102520000D03*
X173500000Y-103480000D03*
D12*
X165520000Y-112500000D03*
X166480000Y-112500000D03*
D13*
X120325000Y-78850000D03*
X112425000Y-78850000D03*
D14*
X152337500Y-83950000D03*
X152337500Y-83300000D03*
X152337500Y-82650000D03*
X152337500Y-82000000D03*
X152337500Y-81350000D03*
X152337500Y-80700000D03*
X152337500Y-80050000D03*
D15*
X151450000Y-79162500D03*
X150800000Y-79162500D03*
X150150000Y-79162500D03*
X149500000Y-79162500D03*
X148850000Y-79162500D03*
X148200000Y-79162500D03*
X147550000Y-79162500D03*
D14*
X146662500Y-80050000D03*
X146662500Y-80700000D03*
X146662500Y-81350000D03*
X146662500Y-82000000D03*
X146662500Y-82650000D03*
X146662500Y-83300000D03*
X146662500Y-83950000D03*
D15*
X147550000Y-84837500D03*
X148200000Y-84837500D03*
X148850000Y-84837500D03*
X149500000Y-84837500D03*
X150150000Y-84837500D03*
X150800000Y-84837500D03*
X151450000Y-84837500D03*
D16*
X149500000Y-82000000D03*
D17*
X147152500Y-86550000D03*
X148172500Y-86550000D03*
D18*
X128700000Y-79975000D03*
D19*
X128700000Y-82515000D03*
X128700000Y-85055000D03*
D20*
X170437500Y-102500000D03*
X172012500Y-102500000D03*
D21*
X109610000Y-114600000D03*
X107710000Y-114600000D03*
D22*
X155500000Y-108225000D03*
X155500000Y-109775000D03*
D10*
X139775000Y-97000000D03*
X138225000Y-97000000D03*
D23*
X123975000Y-85425000D03*
X125525000Y-85425000D03*
D18*
X161000000Y-80000000D03*
D19*
X161000000Y-82540000D03*
X161000000Y-85080000D03*
D24*
X132050000Y-120900000D03*
X133300000Y-120900000D03*
X134550000Y-120900000D03*
X135800000Y-120900000D03*
X137050000Y-120900000D03*
X138300000Y-120900000D03*
D25*
X130200000Y-124100000D03*
X140150000Y-124100000D03*
D26*
X168437500Y-108450000D03*
X168437500Y-106550000D03*
X166562500Y-107500000D03*
D18*
X127585000Y-72900000D03*
D19*
X130125000Y-72900000D03*
X132665000Y-72900000D03*
X135205000Y-72900000D03*
X137745000Y-72900000D03*
X140285000Y-72900000D03*
X142825000Y-72900000D03*
X145365000Y-72900000D03*
X147905000Y-72900000D03*
X150445000Y-72900000D03*
X152985000Y-72900000D03*
X155525000Y-72900000D03*
D27*
X159510000Y-118500000D03*
X158490000Y-118500000D03*
D28*
X131850000Y-97050000D03*
X131850000Y-99950000D03*
X134150000Y-99950000D03*
X134150000Y-97050000D03*
D29*
X138305000Y-103775000D03*
X137345000Y-103775000D03*
D10*
X139775000Y-101500000D03*
X138225000Y-101500000D03*
D11*
X137000000Y-99020000D03*
X137000000Y-99980000D03*
D29*
X138311250Y-102781250D03*
X137351250Y-102781250D03*
D18*
X129890000Y-115475000D03*
D19*
X132430000Y-115475000D03*
X134970000Y-115475000D03*
X137510000Y-115475000D03*
X140050000Y-115475000D03*
X142590000Y-115475000D03*
X145130000Y-115475000D03*
X147670000Y-115475000D03*
X150210000Y-115475000D03*
X152750000Y-115475000D03*
X155290000Y-115475000D03*
X157830000Y-115475000D03*
D30*
X163000000Y-102850000D03*
X163000000Y-106150000D03*
D17*
X165190000Y-89675000D03*
X166210000Y-89675000D03*
D18*
X110920000Y-87500000D03*
D19*
X113460000Y-87500000D03*
X116000000Y-87500000D03*
X118540000Y-87500000D03*
D31*
X170500000Y-91990000D03*
X170500000Y-93010000D03*
D32*
X174862500Y-103500000D03*
X179137500Y-103500000D03*
D31*
X122900000Y-77965000D03*
X122900000Y-78985000D03*
D18*
X165000000Y-80000000D03*
D19*
X165000000Y-82540000D03*
X165000000Y-85080000D03*
D29*
X135480000Y-106500000D03*
X134520000Y-106500000D03*
D33*
X167637500Y-95700000D03*
X167637500Y-94750000D03*
X167637500Y-93800000D03*
X165362500Y-93800000D03*
X165362500Y-94750000D03*
X165362500Y-95700000D03*
D29*
X162980000Y-112500000D03*
X162020000Y-112500000D03*
D34*
X139831250Y-102993750D03*
X139831250Y-104568750D03*
D10*
X139775000Y-95000000D03*
X138225000Y-95000000D03*
D18*
X140275000Y-79970000D03*
D19*
X140275000Y-82510000D03*
X140275000Y-85050000D03*
D35*
X176805000Y-115000000D03*
D36*
X176805000Y-109920000D03*
D29*
X138311250Y-104781250D03*
X137351250Y-104781250D03*
D22*
X144000000Y-108225000D03*
X144000000Y-109775000D03*
D23*
X170450000Y-104000000D03*
X172000000Y-104000000D03*
D37*
X168200000Y-89675000D03*
X167560000Y-89675000D03*
D38*
X124300000Y-113725000D03*
X116400000Y-113725000D03*
D22*
X157000000Y-108225000D03*
X157000000Y-109775000D03*
D39*
X167000000Y-102800000D03*
X167000000Y-99200000D03*
D23*
X159225000Y-92725000D03*
X160775000Y-92725000D03*
D27*
X149115000Y-88550000D03*
X150135000Y-88550000D03*
D24*
X144250000Y-120900000D03*
X145500000Y-120900000D03*
X146750000Y-120900000D03*
X148000000Y-120900000D03*
D25*
X142400000Y-124100000D03*
X149850000Y-124100000D03*
D40*
X137000000Y-97980000D03*
X137000000Y-97020000D03*
D18*
X132550000Y-79970000D03*
D19*
X132550000Y-82510000D03*
X132550000Y-85050000D03*
D41*
X127660000Y-105110000D03*
X127660000Y-104090000D03*
D34*
X137000000Y-106712500D03*
X137000000Y-108287500D03*
D10*
X112435000Y-111600000D03*
X110885000Y-111600000D03*
D23*
X159225000Y-91225000D03*
X160775000Y-91225000D03*
D17*
X155990000Y-118500000D03*
X157010000Y-118500000D03*
D42*
X141825000Y-92550000D03*
X141825000Y-93050000D03*
X141825000Y-93550000D03*
X141825000Y-94050000D03*
X141825000Y-94550000D03*
X141825000Y-95050000D03*
X141825000Y-95550000D03*
X141825000Y-96050000D03*
X141825000Y-96550000D03*
X141825000Y-97050000D03*
X141825000Y-97550000D03*
X141825000Y-98050000D03*
X141825000Y-98550000D03*
X141825000Y-99050000D03*
X141825000Y-99550000D03*
X141825000Y-100050000D03*
X141825000Y-100550000D03*
X141825000Y-101050000D03*
X141825000Y-101550000D03*
X141825000Y-102050000D03*
X141825000Y-102550000D03*
X141825000Y-103050000D03*
X141825000Y-103550000D03*
X141825000Y-104050000D03*
X141825000Y-104550000D03*
D43*
X143500000Y-106225000D03*
X144000000Y-106225000D03*
X144500000Y-106225000D03*
X145000000Y-106225000D03*
X145500000Y-106225000D03*
X146000000Y-106225000D03*
X146500000Y-106225000D03*
X147000000Y-106225000D03*
X147500000Y-106225000D03*
X148000000Y-106225000D03*
X148500000Y-106225000D03*
X149000000Y-106225000D03*
X149500000Y-106225000D03*
X150000000Y-106225000D03*
X150500000Y-106225000D03*
X151000000Y-106225000D03*
X151500000Y-106225000D03*
X152000000Y-106225000D03*
X152500000Y-106225000D03*
X153000000Y-106225000D03*
X153500000Y-106225000D03*
X154000000Y-106225000D03*
X154500000Y-106225000D03*
X155000000Y-106225000D03*
X155500000Y-106225000D03*
D42*
X157175000Y-104550000D03*
X157175000Y-104050000D03*
X157175000Y-103550000D03*
X157175000Y-103050000D03*
X157175000Y-102550000D03*
X157175000Y-102050000D03*
X157175000Y-101550000D03*
X157175000Y-101050000D03*
X157175000Y-100550000D03*
X157175000Y-100050000D03*
X157175000Y-99550000D03*
X157175000Y-99050000D03*
X157175000Y-98550000D03*
X157175000Y-98050000D03*
X157175000Y-97550000D03*
X157175000Y-97050000D03*
X157175000Y-96550000D03*
X157175000Y-96050000D03*
X157175000Y-95550000D03*
X157175000Y-95050000D03*
X157175000Y-94550000D03*
X157175000Y-94050000D03*
X157175000Y-93550000D03*
X157175000Y-93050000D03*
X157175000Y-92550000D03*
D43*
X155500000Y-90875000D03*
X155000000Y-90875000D03*
X154500000Y-90875000D03*
X154000000Y-90875000D03*
X153500000Y-90875000D03*
X153000000Y-90875000D03*
X152500000Y-90875000D03*
X152000000Y-90875000D03*
X151500000Y-90875000D03*
X151000000Y-90875000D03*
X150500000Y-90875000D03*
X150000000Y-90875000D03*
X149500000Y-90875000D03*
X149000000Y-90875000D03*
X148500000Y-90875000D03*
X148000000Y-90875000D03*
X147500000Y-90875000D03*
X147000000Y-90875000D03*
X146500000Y-90875000D03*
X146000000Y-90875000D03*
X145500000Y-90875000D03*
X145000000Y-90875000D03*
X144500000Y-90875000D03*
X144000000Y-90875000D03*
X143500000Y-90875000D03*
D44*
X141050000Y-90950000D03*
X141050000Y-89050000D03*
D41*
X170500000Y-98010000D03*
X170500000Y-96990000D03*
D45*
X167800000Y-114350000D03*
X165500000Y-114350000D03*
D46*
X165500000Y-120650000D03*
D45*
X163200000Y-114350000D03*
D18*
X169000000Y-79975000D03*
D19*
X169000000Y-82515000D03*
X169000000Y-85055000D03*
D10*
X139775000Y-100000000D03*
X138225000Y-100000000D03*
D18*
X136400000Y-79970000D03*
D19*
X136400000Y-82510000D03*
X136400000Y-85050000D03*
D18*
X168000000Y-73000000D03*
D19*
X165460000Y-73000000D03*
X162920000Y-73000000D03*
X160380000Y-73000000D03*
D47*
X149875000Y-86700000D03*
X151775000Y-86700000D03*
D48*
X116660000Y-100600000D03*
X115260000Y-100600000D03*
X117360000Y-101300000D03*
X115960000Y-101300000D03*
X114560000Y-101300000D03*
X116660000Y-102000000D03*
D49*
X115960000Y-102000000D03*
D48*
X115260000Y-102000000D03*
X117360000Y-102700000D03*
X115960000Y-102700000D03*
X114560000Y-102700000D03*
X116660000Y-103400000D03*
X115260000Y-103400000D03*
D50*
X108240000Y-91750000D03*
X109510000Y-91750000D03*
X110780000Y-91750000D03*
X112050000Y-91750000D03*
X113320000Y-91750000D03*
X114590000Y-91750000D03*
X115860000Y-91750000D03*
X117130000Y-91750000D03*
X118400000Y-91750000D03*
X119670000Y-91750000D03*
X120940000Y-91750000D03*
X122210000Y-91750000D03*
X123480000Y-91750000D03*
X124750000Y-91750000D03*
D51*
X126000000Y-93515000D03*
X126000000Y-94785000D03*
X126000000Y-96055000D03*
X126000000Y-97325000D03*
X126000000Y-98595000D03*
X126000000Y-99865000D03*
X126000000Y-101135000D03*
X126000000Y-102405000D03*
X126000000Y-103675000D03*
X126000000Y-104945000D03*
X126000000Y-106215000D03*
X126000000Y-107485000D03*
D50*
X124750000Y-109250000D03*
X123480000Y-109250000D03*
X122210000Y-109250000D03*
X120940000Y-109250000D03*
X119670000Y-109250000D03*
X118400000Y-109250000D03*
X117130000Y-109250000D03*
X115860000Y-109250000D03*
X114590000Y-109250000D03*
X113320000Y-109250000D03*
X112050000Y-109250000D03*
X110780000Y-109250000D03*
X109510000Y-109250000D03*
X108240000Y-109250000D03*
D17*
X110990000Y-115000000D03*
X112010000Y-115000000D03*
D13*
X120250000Y-83125000D03*
X112350000Y-83125000D03*
D24*
X154175000Y-120900000D03*
X155425000Y-120900000D03*
X156675000Y-120900000D03*
X157925000Y-120900000D03*
D25*
X152325000Y-124100000D03*
X159775000Y-124100000D03*
D52*
X143075000Y-88825000D03*
X143075000Y-87275000D03*
D18*
X157000000Y-79975000D03*
D19*
X157000000Y-82515000D03*
X157000000Y-85055000D03*
D18*
X173000000Y-79975000D03*
D19*
X173000000Y-82515000D03*
X173000000Y-85055000D03*
D29*
X135480000Y-108500000D03*
X134520000Y-108500000D03*
D31*
X145200000Y-83190000D03*
X145200000Y-84210000D03*
D29*
X134495000Y-107500000D03*
X135455000Y-107500000D03*
D53*
X173455000Y-99000000D03*
D54*
X176835000Y-99000000D03*
D53*
X173455000Y-90350000D03*
D54*
X176835000Y-90350000D03*
D55*
X173825000Y-91700000D03*
X173825000Y-92550000D03*
X173825000Y-93400000D03*
X173825000Y-94250000D03*
X173825000Y-95100000D03*
X173825000Y-95950000D03*
X173825000Y-96800000D03*
X173825000Y-97650000D03*
X172475000Y-97650000D03*
X172475000Y-96800000D03*
X172475000Y-95950000D03*
X172475000Y-95100000D03*
X172475000Y-94250000D03*
X172475000Y-93400000D03*
X172475000Y-92550000D03*
X172475000Y-91700000D03*
D56*
X168200000Y-88700000D03*
X164175000Y-90075000D03*
X142500000Y-90125000D03*
X144275000Y-93275000D03*
X142575000Y-107100000D03*
X142800000Y-109725000D03*
X173275000Y-104450000D03*
X171850000Y-105325000D03*
X135075000Y-101850000D03*
X140768154Y-105094816D03*
X144450000Y-102850000D03*
X144125000Y-101700000D03*
X135075000Y-104750000D03*
X135050000Y-103750000D03*
X135050000Y-102775000D03*
X132475000Y-108500000D03*
X132475000Y-107525000D03*
X132450000Y-106475000D03*
X129050000Y-99825000D03*
X135250000Y-95400000D03*
X137247969Y-95341954D03*
X123700000Y-77225000D03*
X160575000Y-118650000D03*
X154825000Y-118225000D03*
X154500000Y-119350000D03*
X153025000Y-120075000D03*
X149375000Y-120200000D03*
X142575000Y-120125000D03*
X152200000Y-102825000D03*
X149363148Y-118938148D03*
X151400000Y-102075000D03*
X146025000Y-119050000D03*
X153850000Y-112005761D03*
X155550000Y-112325000D03*
X149225000Y-104750000D03*
X148575000Y-104100000D03*
X137500000Y-119550000D03*
X135175000Y-119450000D03*
X145600000Y-101350000D03*
X144775000Y-112700000D03*
X146775000Y-100475000D03*
X132175000Y-119125000D03*
X107875000Y-93450000D03*
X110225000Y-79150000D03*
X138725000Y-119400000D03*
X133500000Y-119475000D03*
X152425000Y-84950000D03*
X152425000Y-87925000D03*
X155550000Y-93300000D03*
X159250000Y-93950000D03*
X156025000Y-89300000D03*
X162000000Y-91450000D03*
X161975000Y-93275000D03*
X159075000Y-90050000D03*
X145025000Y-104525000D03*
X145950000Y-111500000D03*
X108685000Y-113000000D03*
X107450000Y-116100000D03*
X110225000Y-112800000D03*
X111050000Y-116500000D03*
X109350000Y-116925000D03*
X124775000Y-116125000D03*
X145300000Y-92875000D03*
X137550000Y-91675000D03*
X110000000Y-84500000D03*
X125525000Y-84100000D03*
X165400000Y-111150000D03*
X166475000Y-122725000D03*
X143500000Y-86150000D03*
X139525000Y-89400000D03*
X139325000Y-90975000D03*
X143500000Y-92400000D03*
X146700000Y-87375000D03*
X152600000Y-89475000D03*
X146850000Y-92525000D03*
X145913235Y-89061765D03*
X145125000Y-85125000D03*
X151150000Y-94975000D03*
X151225000Y-95950000D03*
X151325000Y-74100000D03*
X148750000Y-74275000D03*
X152950000Y-88725000D03*
X153075000Y-75100000D03*
X153900000Y-88450000D03*
X154075000Y-75750000D03*
X155250000Y-87525000D03*
X154925000Y-76625000D03*
X150275000Y-96661535D03*
X138525000Y-74325000D03*
X135550000Y-74700000D03*
X149675000Y-97235583D03*
X132850000Y-75525000D03*
X149075000Y-97775000D03*
X130050000Y-75000000D03*
X148375000Y-98475000D03*
X127975000Y-75025000D03*
X145425000Y-94650000D03*
X143775000Y-114075000D03*
X136450000Y-95425000D03*
X141475000Y-114250000D03*
X138625000Y-114050000D03*
X136324265Y-94324265D03*
X136602983Y-93308949D03*
X134275000Y-113550000D03*
X136350000Y-92550000D03*
X133075000Y-113775000D03*
X144400000Y-87975000D03*
X131500000Y-113875000D03*
X145050000Y-87025000D03*
X129950000Y-113900000D03*
D57*
X137975000Y-109575000D03*
X142550000Y-108200000D03*
X158775000Y-108200000D03*
X144000000Y-95050000D03*
X127950000Y-106225000D03*
X143500000Y-98275000D03*
X170700000Y-99375000D03*
X170125000Y-113575000D03*
X170300000Y-90925000D03*
X167325000Y-111050000D03*
X155650000Y-110975000D03*
X174825000Y-91700000D03*
X174675000Y-97975000D03*
X107950000Y-107600000D03*
X144425000Y-98250000D03*
X166500000Y-92650000D03*
X158750000Y-109825000D03*
X161100000Y-110500000D03*
X113825000Y-111950000D03*
X163825000Y-99600000D03*
X143575000Y-103200000D03*
X139750000Y-106675000D03*
X172750000Y-100600000D03*
X174850000Y-96050000D03*
X147600000Y-104575000D03*
D58*
X168200000Y-89675000D02*
X168200000Y-88700000D01*
X166210000Y-89675000D02*
X167560000Y-89675000D01*
X164575000Y-89675000D02*
X164175000Y-90075000D01*
X165190000Y-89675000D02*
X164575000Y-89675000D01*
X149937499Y-77137501D02*
X150799999Y-78000001D01*
X149749999Y-76950000D02*
X149937499Y-77137501D01*
X149937499Y-77137501D02*
X151450000Y-78650002D01*
X151450000Y-78650002D02*
X151450000Y-79162500D01*
X128700000Y-79975000D02*
X131725000Y-76950000D01*
X131725000Y-76950000D02*
X143100000Y-76950000D01*
X150799999Y-78000001D02*
X150862499Y-78062501D01*
X150799999Y-78000001D02*
X151450000Y-78650002D01*
X150862499Y-78062501D02*
X151074999Y-78275001D01*
D59*
X141825000Y-102550000D02*
X141825000Y-103050000D01*
X141425000Y-89050000D02*
X142500000Y-90125000D01*
X141050000Y-89050000D02*
X141425000Y-89050000D01*
X141050000Y-89050000D02*
X141300000Y-89050000D01*
X141300000Y-89050000D02*
X143075000Y-87275000D01*
X144150000Y-93150000D02*
X144275000Y-93275000D01*
X144150000Y-92725000D02*
X144150000Y-93150000D01*
X144150000Y-92130761D02*
X144150000Y-92725000D01*
X144000000Y-91980761D02*
X144150000Y-92130761D01*
X144000000Y-90875000D02*
X144000000Y-91980761D01*
X144000000Y-106225000D02*
X144000000Y-107128120D01*
X142850000Y-107375000D02*
X142575000Y-107100000D01*
X143753120Y-107375000D02*
X142850000Y-107375000D01*
X144000000Y-107128120D02*
X143753120Y-107375000D01*
X142850000Y-109775000D02*
X142800000Y-109725000D01*
X144000000Y-109775000D02*
X142850000Y-109775000D01*
X149500000Y-79162500D02*
X149500000Y-82000000D01*
X173500000Y-104225000D02*
X173275000Y-104450000D01*
X173500000Y-103480000D02*
X173500000Y-104225000D01*
X172000000Y-105175000D02*
X171850000Y-105325000D01*
X172000000Y-104000000D02*
X172000000Y-105175000D01*
X173500000Y-103480000D02*
X172520000Y-103480000D01*
X172520000Y-103480000D02*
X172000000Y-104000000D01*
X149875000Y-86700000D02*
X152600000Y-89425000D01*
X152600000Y-89425000D02*
X152600000Y-89475000D01*
X151060000Y-89475000D02*
X150135000Y-88550000D01*
X152600000Y-89475000D02*
X151060000Y-89475000D01*
X139325000Y-90975000D02*
X141025000Y-90975000D01*
X141025000Y-90975000D02*
X141050000Y-90950000D01*
D60*
X137975000Y-109575000D02*
X137000000Y-108600000D01*
X137000000Y-108600000D02*
X137000000Y-108287500D01*
D59*
X138225000Y-100000000D02*
X138225000Y-101500000D01*
X138225000Y-100000000D02*
X137020000Y-100000000D01*
X137020000Y-100000000D02*
X137000000Y-99980000D01*
X135425000Y-101500000D02*
X135075000Y-101850000D01*
X138225000Y-101500000D02*
X135425000Y-101500000D01*
X139775000Y-101500000D02*
X139825000Y-101550000D01*
X139825000Y-101550000D02*
X141825000Y-101550000D01*
X140242088Y-104568750D02*
X140768154Y-105094816D01*
X139831250Y-104568750D02*
X140242088Y-104568750D01*
X126000000Y-99865000D02*
X127497500Y-99865000D01*
X127497500Y-99865000D02*
X133382500Y-105750000D01*
X133382500Y-105750000D02*
X142571880Y-105750000D01*
X142571880Y-105750000D02*
X144471880Y-103850000D01*
X144471880Y-103850000D02*
X145269239Y-103850000D01*
X145269239Y-103850000D02*
X146000000Y-104580761D01*
X146000000Y-104580761D02*
X146000000Y-106225000D01*
X144355761Y-102850000D02*
X144450000Y-102850000D01*
X143555761Y-102050000D02*
X144355761Y-102850000D01*
X141825000Y-102050000D02*
X143555761Y-102050000D01*
X143975000Y-101550000D02*
X144125000Y-101700000D01*
X141825000Y-101550000D02*
X143975000Y-101550000D01*
X135106250Y-104781250D02*
X135075000Y-104750000D01*
X137351250Y-104781250D02*
X135106250Y-104781250D01*
X135075000Y-103775000D02*
X135050000Y-103750000D01*
X137345000Y-103775000D02*
X135075000Y-103775000D01*
X135056250Y-102781250D02*
X135050000Y-102775000D01*
X137351250Y-102781250D02*
X135056250Y-102781250D01*
X138311250Y-102781250D02*
X138311250Y-103768750D01*
X138311250Y-103768750D02*
X138305000Y-103775000D01*
X134520000Y-108500000D02*
X132475000Y-108500000D01*
X132500000Y-107500000D02*
X132475000Y-107525000D01*
X134495000Y-107500000D02*
X132500000Y-107500000D01*
X132475000Y-106500000D02*
X132450000Y-106475000D01*
X134520000Y-106500000D02*
X132475000Y-106500000D01*
X135480000Y-106500000D02*
X135480000Y-107475000D01*
X135480000Y-107475000D02*
X135455000Y-107500000D01*
X129175000Y-99950000D02*
X129050000Y-99825000D01*
X131850000Y-99950000D02*
X129175000Y-99950000D01*
X135250000Y-95400000D02*
X134150000Y-96500000D01*
X134150000Y-96500000D02*
X134150000Y-97050000D01*
X137000000Y-97020000D02*
X134180000Y-97020000D01*
X134180000Y-97020000D02*
X134150000Y-97050000D01*
X137000000Y-97020000D02*
X137247969Y-96772031D01*
X137247969Y-96772031D02*
X137247969Y-95341954D01*
X138225000Y-97000000D02*
X138225000Y-96318985D01*
X138225000Y-96318985D02*
X137247969Y-95341954D01*
X137589923Y-95000000D02*
X137247969Y-95341954D01*
X138225000Y-95000000D02*
X137589923Y-95000000D01*
D58*
X136572794Y-94924265D02*
X136924265Y-94572794D01*
X136450000Y-95425000D02*
X136450000Y-95025000D01*
X136450000Y-95025000D02*
X136550735Y-94924265D01*
X136924265Y-94550735D02*
X137425000Y-94050000D01*
X136924265Y-94572794D02*
X136924265Y-94550735D01*
X137425000Y-94050000D02*
X141825000Y-94050000D01*
X136550735Y-94924265D02*
X136572794Y-94924265D01*
D59*
X122960000Y-77965000D02*
X123700000Y-77225000D01*
X122900000Y-77965000D02*
X122960000Y-77965000D01*
X172475000Y-94250000D02*
X172835050Y-94250000D01*
X172835050Y-94250000D02*
X173685050Y-95100000D01*
X173685050Y-95100000D02*
X173825000Y-95100000D01*
X173825000Y-92550000D02*
X174319974Y-92550000D01*
X176166371Y-94396397D02*
X176166371Y-96800000D01*
X174319974Y-92550000D02*
X176166371Y-94396397D01*
X172475000Y-92550000D02*
X173825000Y-92550000D01*
X160425000Y-118500000D02*
X160575000Y-118650000D01*
X159510000Y-118500000D02*
X160425000Y-118500000D01*
X155100000Y-118500000D02*
X154825000Y-118225000D01*
X155990000Y-118500000D02*
X155100000Y-118500000D01*
X154500000Y-119425000D02*
X154500000Y-119350000D01*
X155425000Y-120350000D02*
X154625000Y-119550000D01*
X154625000Y-119550000D02*
X154500000Y-119425000D01*
X155425000Y-120900000D02*
X155425000Y-120350000D01*
X153850000Y-120900000D02*
X153025000Y-120075000D01*
X154175000Y-120900000D02*
X153850000Y-120900000D01*
X148675000Y-120900000D02*
X149375000Y-120200000D01*
X148000000Y-120900000D02*
X148675000Y-120900000D01*
X143350000Y-120900000D02*
X142575000Y-120125000D01*
X144250000Y-120900000D02*
X143350000Y-120900000D01*
X146750000Y-120050001D02*
X147861853Y-118938148D01*
X146750000Y-120900000D02*
X146750000Y-120050001D01*
X147861853Y-118938148D02*
X149363148Y-118938148D01*
X152200000Y-102825000D02*
X152550000Y-102825000D01*
X152550000Y-102825000D02*
X152825000Y-102550000D01*
X152825000Y-102550000D02*
X157175000Y-102550000D01*
X145975000Y-119075000D02*
X146000000Y-119050000D01*
X146000000Y-119050000D02*
X146025000Y-119050000D01*
X151425000Y-102050000D02*
X157175000Y-102050000D01*
X151400000Y-102075000D02*
X151425000Y-102050000D01*
X145500000Y-119550000D02*
X145975000Y-119075000D01*
X145500000Y-120900000D02*
X145500000Y-119550000D01*
X158490000Y-118500000D02*
X156630000Y-116640000D01*
X156630000Y-116640000D02*
X156630000Y-113405000D01*
X156630000Y-113405000D02*
X155550000Y-112325000D01*
X154000000Y-111855761D02*
X154000000Y-106225000D01*
X153850000Y-112005761D02*
X154000000Y-111855761D01*
X157010000Y-118500000D02*
X155185000Y-116675000D01*
X155185000Y-116675000D02*
X154792943Y-116675000D01*
X154792943Y-116675000D02*
X154000000Y-115882057D01*
X154000000Y-115882057D02*
X154000000Y-112880761D01*
X154000000Y-112880761D02*
X154500000Y-112380761D01*
X154500000Y-112380761D02*
X154500000Y-106225000D01*
X157925000Y-120900000D02*
X157925000Y-119065000D01*
X157925000Y-119065000D02*
X158490000Y-118500000D01*
X156675000Y-120900000D02*
X156675000Y-118835000D01*
X156675000Y-118835000D02*
X157010000Y-118500000D01*
X149225000Y-104750000D02*
X149425000Y-104550000D01*
X149425000Y-104550000D02*
X157175000Y-104550000D01*
X148575000Y-104100000D02*
X148625000Y-104050000D01*
X148625000Y-104050000D02*
X157175000Y-104050000D01*
X137050000Y-120000000D02*
X137500000Y-119550000D01*
X137050000Y-120900000D02*
X137050000Y-120000000D01*
X134550000Y-120900000D02*
X134550000Y-120075000D01*
X134550000Y-120075000D02*
X135175000Y-119450000D01*
X135800000Y-120900000D02*
X135800000Y-120050001D01*
X140825000Y-113980761D02*
X142105761Y-112700000D01*
X140825000Y-114519239D02*
X140825000Y-113980761D01*
X139175001Y-116675000D02*
X140687057Y-116675000D01*
X145600000Y-101350000D02*
X145250000Y-101350000D01*
X140687057Y-116675000D02*
X141390000Y-115972057D01*
X142105761Y-112700000D02*
X144775000Y-112700000D01*
X141390000Y-115972057D02*
X141390000Y-115084239D01*
X135800000Y-120050001D02*
X139175001Y-116675000D01*
X141390000Y-115084239D02*
X140825000Y-114519239D01*
X145250000Y-101350000D02*
X144950000Y-101050000D01*
X144950000Y-101050000D02*
X141825000Y-101050000D01*
X132050000Y-119250000D02*
X132175000Y-119125000D01*
X132050000Y-120900000D02*
X132050000Y-119250000D01*
X146775000Y-100475000D02*
X146700000Y-100550000D01*
X146700000Y-100550000D02*
X141825000Y-100550000D01*
X108240000Y-93085000D02*
X107875000Y-93450000D01*
X108240000Y-91750000D02*
X108240000Y-93085000D01*
X110525000Y-78850000D02*
X110225000Y-79150000D01*
X112425000Y-78850000D02*
X110525000Y-78850000D01*
X138300000Y-119825000D02*
X138725000Y-119400000D01*
X138300000Y-120900000D02*
X138300000Y-119825000D01*
X133300000Y-119675000D02*
X133500000Y-119475000D01*
X133300000Y-120900000D02*
X133300000Y-119675000D01*
X146662500Y-83950000D02*
X147550000Y-83950000D01*
X147550000Y-83950000D02*
X149500000Y-82000000D01*
X147550000Y-84837500D02*
X147550000Y-83950000D01*
X150800000Y-84837500D02*
X150800000Y-83300000D01*
X150800000Y-83300000D02*
X149500000Y-82000000D01*
X150150000Y-84837500D02*
X150150000Y-82650000D01*
X150150000Y-82650000D02*
X149500000Y-82000000D01*
X152337500Y-83300000D02*
X152337500Y-83950000D01*
X152425000Y-84950000D02*
X151562500Y-84950000D01*
X151562500Y-84950000D02*
X151450000Y-84837500D01*
X152337500Y-84862500D02*
X152425000Y-84950000D01*
X152337500Y-83950000D02*
X152337500Y-84862500D01*
X150150000Y-84837500D02*
X150800000Y-84837500D01*
X150800000Y-84837500D02*
X151450000Y-84837500D01*
X151775000Y-87275000D02*
X152425000Y-87925000D01*
X151775000Y-86700000D02*
X151775000Y-87275000D01*
X151450000Y-84837500D02*
X151450000Y-86375000D01*
X151450000Y-86375000D02*
X151775000Y-86700000D01*
X155800000Y-93050000D02*
X155550000Y-93300000D01*
X157175000Y-93050000D02*
X155800000Y-93050000D01*
X159150000Y-94050000D02*
X159250000Y-93950000D01*
X157175000Y-94050000D02*
X159150000Y-94050000D01*
X155500000Y-89825000D02*
X156025000Y-89300000D01*
X155500000Y-90875000D02*
X155500000Y-89825000D01*
X161775000Y-91225000D02*
X162000000Y-91450000D01*
X160775000Y-91225000D02*
X161775000Y-91225000D01*
X161425000Y-92725000D02*
X161975000Y-93275000D01*
X160775000Y-92725000D02*
X161425000Y-92725000D01*
X159225000Y-90200000D02*
X159075000Y-90050000D01*
X159225000Y-91225000D02*
X159225000Y-90200000D01*
X157175000Y-92550000D02*
X157900000Y-92550000D01*
X157900000Y-92550000D02*
X159225000Y-91225000D01*
X159225000Y-92725000D02*
X158400000Y-93550000D01*
X158400000Y-93550000D02*
X157175000Y-93550000D01*
X127660000Y-104090000D02*
X129000000Y-105430000D01*
X129000000Y-105430000D02*
X129000000Y-108207107D01*
X129000000Y-108207107D02*
X132367893Y-111575000D01*
X132367893Y-111575000D02*
X145875000Y-111575000D01*
X145025000Y-104525000D02*
X145000000Y-104550000D01*
X145875000Y-111575000D02*
X145950000Y-111500000D01*
X145000000Y-104550000D02*
X145000000Y-106225000D01*
X107885000Y-112200000D02*
X108685000Y-113000000D01*
X107885000Y-111600000D02*
X107885000Y-112200000D01*
X107710000Y-115840000D02*
X107450000Y-116100000D01*
X107710000Y-114600000D02*
X107710000Y-115840000D01*
X109435000Y-112010000D02*
X110225000Y-112800000D01*
X109435000Y-111600000D02*
X109435000Y-112010000D01*
X110990000Y-116440000D02*
X111050000Y-116500000D01*
X110990000Y-115000000D02*
X110990000Y-116440000D01*
X109610000Y-116665000D02*
X109350000Y-116925000D01*
X109610000Y-114600000D02*
X109610000Y-116665000D01*
X124300000Y-115650000D02*
X124775000Y-116125000D01*
X124300000Y-113725000D02*
X124300000Y-115650000D01*
X112010000Y-115000000D02*
X115125000Y-115000000D01*
X115125000Y-115000000D02*
X116400000Y-113725000D01*
X133622943Y-91675000D02*
X137550000Y-91675000D01*
X122900000Y-78985000D02*
X126175000Y-82260000D01*
X146500000Y-91778120D02*
X146500000Y-90875000D01*
X126175000Y-84227057D02*
X133622943Y-91675000D01*
X126175000Y-82260000D02*
X126175000Y-84227057D01*
X145300000Y-92875000D02*
X145450000Y-92725000D01*
X145450000Y-92725000D02*
X145553120Y-92725000D01*
X145553120Y-92725000D02*
X146500000Y-91778120D01*
X146700000Y-87375000D02*
X146700000Y-87002500D01*
X146700000Y-87002500D02*
X147152500Y-86550000D01*
D60*
X120325000Y-78850000D02*
X122765000Y-78850000D01*
X122765000Y-78850000D02*
X122900000Y-78985000D01*
X120250000Y-83125000D02*
X121675000Y-83125000D01*
X121675000Y-83125000D02*
X123975000Y-85425000D01*
X110000000Y-84500000D02*
X110975000Y-84500000D01*
X110975000Y-84500000D02*
X112350000Y-83125000D01*
X125525000Y-85425000D02*
X125525000Y-84100000D01*
X124750000Y-91750000D02*
X124750000Y-87975000D01*
X124750000Y-87975000D02*
X123975000Y-87200000D01*
X123975000Y-87200000D02*
X123975000Y-85425000D01*
X165520000Y-111270000D02*
X165400000Y-111150000D01*
X165520000Y-112500000D02*
X165520000Y-111270000D01*
X165500000Y-121750000D02*
X166475000Y-122725000D01*
X165500000Y-120650000D02*
X165500000Y-121750000D01*
D59*
X143500000Y-86150000D02*
X143075000Y-86575000D01*
X143075000Y-86575000D02*
X143075000Y-87275000D01*
X139875000Y-89050000D02*
X139525000Y-89400000D01*
X141050000Y-89050000D02*
X139875000Y-89050000D01*
X141050000Y-90950000D02*
X143425000Y-90950000D01*
X143425000Y-90950000D02*
X143500000Y-90875000D01*
X143500000Y-92400000D02*
X143500000Y-90875000D01*
D58*
X146850000Y-92525000D02*
X147500000Y-91875000D01*
X147500000Y-91875000D02*
X147500000Y-90875000D01*
X148172500Y-86550000D02*
X148172500Y-87002500D01*
X148172500Y-87002500D02*
X147972500Y-87002500D01*
X147972500Y-87002500D02*
X145913235Y-89061765D01*
X147350000Y-88550000D02*
X147000000Y-88900000D01*
X147000000Y-88900000D02*
X147000000Y-90875000D01*
X149115000Y-88550000D02*
X147350000Y-88550000D01*
X148200000Y-84837500D02*
X148200000Y-86522500D01*
X148200000Y-86522500D02*
X148172500Y-86550000D01*
X148850000Y-85400000D02*
X149050000Y-85600000D01*
X148850000Y-84837500D02*
X148850000Y-85400000D01*
X149050000Y-85600000D02*
X149050000Y-88485000D01*
X149050000Y-88485000D02*
X149115000Y-88550000D01*
X149500000Y-84837500D02*
X149500000Y-86325000D01*
X149500000Y-86325000D02*
X149875000Y-86700000D01*
X145200000Y-85050000D02*
X145125000Y-85125000D01*
X145200000Y-84210000D02*
X145200000Y-85050000D01*
X146662500Y-83950000D02*
X145460000Y-83950000D01*
X145460000Y-83950000D02*
X145200000Y-84210000D01*
X146662500Y-83300000D02*
X145310000Y-83300000D01*
X145310000Y-83300000D02*
X145200000Y-83190000D01*
X143100000Y-76950000D02*
X143300000Y-76950000D01*
X143100000Y-76950000D02*
X149749999Y-76950000D01*
X153676471Y-76200000D02*
X153826471Y-76350000D01*
X143585000Y-76200000D02*
X153676471Y-76200000D01*
X153826471Y-76350000D02*
X154323529Y-76350000D01*
X140285000Y-72900000D02*
X143585000Y-76200000D01*
X154323529Y-76350000D02*
X154473529Y-76200000D01*
X154473529Y-76200000D02*
X154500000Y-76200000D01*
X154500000Y-76200000D02*
X154925000Y-76625000D01*
X132550000Y-79970000D02*
X135170000Y-77350000D01*
X149400000Y-77350000D02*
X150800000Y-78750000D01*
X135170000Y-77350000D02*
X149400000Y-77350000D01*
X150800000Y-78750000D02*
X150800000Y-79162500D01*
X136400000Y-79970000D02*
X138620000Y-77750000D01*
X138620000Y-77750000D02*
X149132410Y-77750000D01*
X149132410Y-77750000D02*
X150150000Y-78767590D01*
X150150000Y-78767590D02*
X150150000Y-79162500D01*
X140275000Y-79970000D02*
X142705000Y-79970000D01*
X142705000Y-79970000D02*
X144525000Y-78150000D01*
X148349999Y-78150000D02*
X148850000Y-78650001D01*
X144525000Y-78150000D02*
X148349999Y-78150000D01*
X148850000Y-78650001D02*
X148850000Y-79162500D01*
X152975000Y-82650000D02*
X155075000Y-80550000D01*
X155775000Y-79975000D02*
X157000000Y-79975000D01*
X152337500Y-82650000D02*
X152975000Y-82650000D01*
X155075000Y-80550000D02*
X155200000Y-80550000D01*
X155200000Y-80550000D02*
X155775000Y-79975000D01*
X152337500Y-82000000D02*
X152849999Y-82000000D01*
X152849999Y-82000000D02*
X156149999Y-78700000D01*
X156149999Y-78700000D02*
X159700000Y-78700000D01*
X159700000Y-78700000D02*
X161000000Y-80000000D01*
X152337500Y-81350000D02*
X152900000Y-81350000D01*
X152900000Y-81350000D02*
X155950000Y-78300000D01*
X155950000Y-78300000D02*
X164275000Y-78300000D01*
X164275000Y-78300000D02*
X164800000Y-78825000D01*
X164800000Y-78825000D02*
X164800000Y-79800000D01*
X164800000Y-79800000D02*
X165000000Y-80000000D01*
X152337500Y-80700000D02*
X152840685Y-80700000D01*
X152840685Y-80700000D02*
X155640685Y-77900000D01*
X155640685Y-77900000D02*
X168225000Y-77900000D01*
X168225000Y-77900000D02*
X169000000Y-78675000D01*
X169000000Y-78675000D02*
X169000000Y-79975000D01*
X152337500Y-80050000D02*
X152925000Y-80050000D01*
X171525000Y-77500000D02*
X173000000Y-78975000D01*
X152925000Y-80050000D02*
X155475000Y-77500000D01*
X155475000Y-77500000D02*
X171525000Y-77500000D01*
X173000000Y-78975000D02*
X173000000Y-79975000D01*
X143730761Y-95700000D02*
X143580761Y-95550000D01*
X144719239Y-95250000D02*
X144269239Y-95700000D01*
X151150000Y-94975000D02*
X150875000Y-95250000D01*
X150875000Y-95250000D02*
X144719239Y-95250000D01*
X144269239Y-95700000D02*
X143730761Y-95700000D01*
X143580761Y-95550000D02*
X141825000Y-95550000D01*
X151225000Y-95950000D02*
X146423529Y-95950000D01*
X146423529Y-95950000D02*
X146248529Y-96125000D01*
X146248529Y-96125000D02*
X143590076Y-96125000D01*
X150445000Y-72900000D02*
X150445000Y-73220000D01*
X150445000Y-73220000D02*
X151325000Y-74100000D01*
X143590076Y-96125000D02*
X143515076Y-96050000D01*
X143515076Y-96050000D02*
X141825000Y-96050000D01*
X147905000Y-73430000D02*
X148750000Y-74275000D01*
X147905000Y-72900000D02*
X147905000Y-73430000D01*
X153500000Y-89275000D02*
X153500000Y-90875000D01*
X147565000Y-75100000D02*
X153075000Y-75100000D01*
X145365000Y-72900000D02*
X147565000Y-75100000D01*
X152950000Y-88725000D02*
X153500000Y-89275000D01*
X142825000Y-72900000D02*
X145675000Y-75750000D01*
X153900000Y-88450000D02*
X154000000Y-88550000D01*
X145675000Y-75750000D02*
X154075000Y-75750000D01*
X154000000Y-88550000D02*
X154000000Y-90875000D01*
X155250000Y-87525000D02*
X154500000Y-88275000D01*
X154500000Y-88275000D02*
X154500000Y-90875000D01*
X150275000Y-96661535D02*
X150663465Y-97050000D01*
X137745000Y-72900000D02*
X137745000Y-73545000D01*
X137745000Y-73545000D02*
X138525000Y-74325000D01*
X150663465Y-97050000D02*
X157175000Y-97050000D01*
X135205000Y-74355000D02*
X135550000Y-74700000D01*
X135205000Y-72900000D02*
X135205000Y-74355000D01*
X149675000Y-97235583D02*
X149989417Y-97550000D01*
X149989417Y-97550000D02*
X157175000Y-97550000D01*
X149075000Y-97775000D02*
X149350000Y-98050000D01*
X149350000Y-98050000D02*
X157175000Y-98050000D01*
X132675000Y-75350000D02*
X132850000Y-75525000D01*
X132675000Y-75025000D02*
X132675000Y-75350000D01*
X132675000Y-74925000D02*
X132675000Y-75025000D01*
X132665000Y-74915000D02*
X132675000Y-74925000D01*
X132665000Y-72900000D02*
X132665000Y-74915000D01*
X130125000Y-72900000D02*
X130125000Y-74925000D01*
X148375000Y-98475000D02*
X148800000Y-98475000D01*
X148875000Y-98550000D02*
X157175000Y-98550000D01*
X130125000Y-74925000D02*
X130050000Y-75000000D01*
X148800000Y-98475000D02*
X148875000Y-98550000D01*
X127585000Y-74635000D02*
X127975000Y-75025000D01*
X127585000Y-72900000D02*
X127585000Y-74635000D01*
X142807410Y-94400000D02*
X142657410Y-94550000D01*
X145425000Y-94650000D02*
X145175000Y-94400000D01*
X145175000Y-94400000D02*
X142807410Y-94400000D01*
X142657410Y-94550000D02*
X141825000Y-94550000D01*
X145130000Y-115475000D02*
X145130000Y-115430000D01*
X145130000Y-115430000D02*
X143775000Y-114075000D01*
X142590000Y-115475000D02*
X142590000Y-115365000D01*
X142590000Y-115365000D02*
X141475000Y-114250000D01*
X140050000Y-115475000D02*
X138625000Y-114050000D01*
X136324265Y-94324265D02*
X136498530Y-94150000D01*
X137210461Y-93550000D02*
X141825000Y-93550000D01*
X136498530Y-94150000D02*
X136610461Y-94150000D01*
X136610461Y-94150000D02*
X137210461Y-93550000D01*
X137510000Y-115475000D02*
X135585000Y-113550000D01*
X135585000Y-113550000D02*
X134275000Y-113550000D01*
X136861932Y-93050000D02*
X141825000Y-93050000D01*
X136602983Y-93308949D02*
X136861932Y-93050000D01*
X134970000Y-115475000D02*
X133270000Y-113775000D01*
X133270000Y-113775000D02*
X133075000Y-113775000D01*
X136350000Y-92550000D02*
X141825000Y-92550000D01*
X143500000Y-90875000D02*
X143500000Y-89250000D01*
X143500000Y-89250000D02*
X143075000Y-88825000D01*
X132430000Y-114805000D02*
X131500000Y-113875000D01*
X132430000Y-115475000D02*
X132430000Y-114805000D01*
X144400000Y-87975000D02*
X144500000Y-88075000D01*
X144500000Y-88075000D02*
X144500000Y-90875000D01*
X145050000Y-87025000D02*
X145000000Y-87075000D01*
X145000000Y-87075000D02*
X145000000Y-90875000D01*
X129890000Y-113960000D02*
X129950000Y-113900000D01*
X129890000Y-115475000D02*
X129890000Y-113960000D01*
X152750000Y-115475000D02*
X150500000Y-113225000D01*
X150500000Y-113225000D02*
X150500000Y-106225000D01*
X150210000Y-115475000D02*
X150000000Y-115265000D01*
X150000000Y-115265000D02*
X150000000Y-106225000D01*
X147670000Y-115475000D02*
X149500000Y-113645000D01*
X149500000Y-113645000D02*
X149500000Y-106225000D01*
X137000000Y-99020000D02*
X136780000Y-99020000D01*
X136780000Y-99020000D02*
X135850000Y-99950000D01*
X135850000Y-99950000D02*
X134150000Y-99950000D01*
X137000000Y-97980000D02*
X136580000Y-98400000D01*
X136580000Y-98400000D02*
X133125000Y-98400000D01*
X133125000Y-98400000D02*
X131850000Y-97125000D01*
X131850000Y-97125000D02*
X131850000Y-97050000D01*
D59*
X155500000Y-106225000D02*
X155500000Y-106725000D01*
D60*
X139831250Y-104568750D02*
X138523750Y-104568750D01*
X109435000Y-114425000D02*
X109610000Y-114600000D01*
X109510000Y-109250000D02*
X109510000Y-111525000D01*
X110590000Y-114600000D02*
X110990000Y-115000000D01*
X138523750Y-104568750D02*
X138311250Y-104781250D01*
X135692500Y-108287500D02*
X135480000Y-108500000D01*
X165500000Y-114350000D02*
X165500000Y-120650000D01*
D59*
X139825000Y-95050000D02*
X139775000Y-95000000D01*
D60*
X139918750Y-104481250D02*
X139831250Y-104568750D01*
D59*
X127950000Y-106225000D02*
X127660000Y-105935000D01*
D60*
X137000000Y-108287500D02*
X135692500Y-108287500D01*
X109435000Y-111600000D02*
X109435000Y-114425000D01*
X142575000Y-108225000D02*
X142550000Y-108200000D01*
D59*
X141825000Y-95050000D02*
X144000000Y-95050000D01*
X155500000Y-106725000D02*
X157000000Y-108225000D01*
X158750000Y-108225000D02*
X158775000Y-108200000D01*
X141825000Y-97550000D02*
X140325000Y-97550000D01*
D60*
X165520000Y-112500000D02*
X165520000Y-114330000D01*
D58*
X144500000Y-107725000D02*
X144000000Y-108225000D01*
D60*
X165520000Y-114330000D02*
X165500000Y-114350000D01*
D59*
X127660000Y-105935000D02*
X127660000Y-105110000D01*
X140325000Y-97550000D02*
X139775000Y-97000000D01*
X141825000Y-95050000D02*
X139825000Y-95050000D01*
D60*
X109510000Y-111525000D02*
X109435000Y-111600000D01*
D58*
X144500000Y-106225000D02*
X144500000Y-107725000D01*
D60*
X144000000Y-108225000D02*
X142575000Y-108225000D01*
D59*
X141825000Y-97550000D02*
X142775000Y-97550000D01*
D60*
X109610000Y-114600000D02*
X110590000Y-114600000D01*
D59*
X142775000Y-97550000D02*
X143500000Y-98275000D01*
X157000000Y-108225000D02*
X158750000Y-108225000D01*
D60*
X167000000Y-99200000D02*
X164225000Y-99200000D01*
X166480000Y-112500000D02*
X166480000Y-111895000D01*
X157000000Y-109775000D02*
X158700000Y-109775000D01*
X166480000Y-113030000D02*
X167800000Y-114350000D01*
X158700000Y-109775000D02*
X158750000Y-109825000D01*
D59*
X173825000Y-91700000D02*
X174825000Y-91700000D01*
D60*
X108240000Y-111245000D02*
X107885000Y-111600000D01*
X169350000Y-114350000D02*
X170125000Y-113575000D01*
X166480000Y-112500000D02*
X166480000Y-113030000D01*
D59*
X170500000Y-98010000D02*
X170500000Y-99175000D01*
D60*
X107885000Y-111600000D02*
X107885000Y-114425000D01*
D59*
X170500000Y-91990000D02*
X170500000Y-91125000D01*
D60*
X155500000Y-109775000D02*
X155500000Y-110825000D01*
D59*
X174350000Y-97650000D02*
X174675000Y-97975000D01*
D60*
X162020000Y-111420000D02*
X161100000Y-110500000D01*
D59*
X143264950Y-97050000D02*
X144425000Y-98210050D01*
X166500000Y-94274999D02*
X166500000Y-92650000D01*
X172475000Y-91700000D02*
X173825000Y-91700000D01*
D60*
X162020000Y-112500000D02*
X162020000Y-111420000D01*
D58*
X108240000Y-109250000D02*
X108240000Y-107890000D01*
D60*
X107885000Y-114425000D02*
X107710000Y-114600000D01*
D59*
X170500000Y-98010000D02*
X172115000Y-98010000D01*
X170500000Y-91125000D02*
X170300000Y-90925000D01*
D60*
X108240000Y-109250000D02*
X108240000Y-111245000D01*
D58*
X108240000Y-107890000D02*
X107950000Y-107600000D01*
D60*
X164225000Y-99200000D02*
X163825000Y-99600000D01*
D59*
X112435000Y-111600000D02*
X113475000Y-111600000D01*
X172475000Y-97650000D02*
X173825000Y-97650000D01*
D60*
X166480000Y-111895000D02*
X167325000Y-111050000D01*
D59*
X172475000Y-91700000D02*
X170790000Y-91700000D01*
X170790000Y-91700000D02*
X170500000Y-91990000D01*
X141825000Y-97050000D02*
X143264950Y-97050000D01*
X173825000Y-97650000D02*
X174350000Y-97650000D01*
X144425000Y-98210050D02*
X144425000Y-98250000D01*
X113475000Y-111600000D02*
X113825000Y-111950000D01*
X167637500Y-94750000D02*
X166975001Y-94750000D01*
D60*
X167800000Y-114350000D02*
X169350000Y-114350000D01*
D59*
X170500000Y-99175000D02*
X170700000Y-99375000D01*
X172115000Y-98010000D02*
X172475000Y-97650000D01*
X166975001Y-94750000D02*
X166500000Y-94274999D01*
D60*
X155500000Y-110825000D02*
X155650000Y-110975000D01*
X138523750Y-102993750D02*
X138311250Y-102781250D01*
D59*
X141825000Y-102550000D02*
X142925000Y-102550000D01*
X141825000Y-103050000D02*
X139887500Y-103050000D01*
X142925000Y-102550000D02*
X143575000Y-103200000D01*
X139887500Y-103050000D02*
X139831250Y-102993750D01*
D60*
X135692500Y-106712500D02*
X135480000Y-106500000D01*
D59*
X139750000Y-106675000D02*
X137037500Y-106675000D01*
D60*
X137000000Y-106712500D02*
X135692500Y-106712500D01*
D59*
X137037500Y-106675000D02*
X137000000Y-106712500D01*
D60*
X139831250Y-102993750D02*
X138523750Y-102993750D01*
D59*
X140725000Y-99050000D02*
X141825000Y-99050000D01*
X139775000Y-100000000D02*
X140725000Y-99050000D01*
X137070000Y-98050000D02*
X137000000Y-97980000D01*
X141825000Y-98050000D02*
X137070000Y-98050000D01*
X139980000Y-99020000D02*
X137000000Y-99020000D01*
X140450000Y-98550000D02*
X139980000Y-99020000D01*
X141825000Y-98550000D02*
X140450000Y-98550000D01*
X155000000Y-107725000D02*
X155500000Y-108225000D01*
X155000000Y-106225000D02*
X155000000Y-107725000D01*
D58*
X110900000Y-113890000D02*
X110900000Y-111615000D01*
D59*
X110780000Y-111495000D02*
X110885000Y-111600000D01*
D58*
X112010000Y-115000000D02*
X110900000Y-113890000D01*
X110900000Y-111615000D02*
X110885000Y-111600000D01*
D59*
X110780000Y-109250000D02*
X110780000Y-111495000D01*
D60*
X166562500Y-107500000D02*
X164350000Y-107500000D01*
X164350000Y-107500000D02*
X163000000Y-106150000D01*
D59*
X173825000Y-96800000D02*
X176166371Y-96800000D01*
X176166371Y-96800000D02*
X179137500Y-99771129D01*
X179137500Y-99771129D02*
X179137500Y-103500000D01*
X172475000Y-96800000D02*
X173825000Y-96800000D01*
X170500000Y-93010000D02*
X170890000Y-93400000D01*
X170890000Y-93400000D02*
X172475000Y-93400000D01*
D58*
X171629437Y-94900001D02*
X172275001Y-94900001D01*
X169356251Y-94975000D02*
X171554438Y-94975000D01*
X167637500Y-95700000D02*
X168631251Y-95700000D01*
X168631251Y-95700000D02*
X169356251Y-94975000D01*
X171554438Y-94975000D02*
X171629437Y-94900001D01*
X172275001Y-94900001D02*
X172475000Y-95100000D01*
X169356251Y-94525000D02*
X171375000Y-94525000D01*
X172275001Y-94449999D02*
X172475000Y-94250000D01*
X167637500Y-93800000D02*
X168631251Y-93800000D01*
X171375000Y-94525000D02*
X171450001Y-94449999D01*
X171450001Y-94449999D02*
X172275001Y-94449999D01*
X168631251Y-93800000D02*
X169356251Y-94525000D01*
D59*
X173825000Y-95950000D02*
X174750000Y-95950000D01*
X169475000Y-100000000D02*
X169475000Y-97525000D01*
X174750000Y-95950000D02*
X174850000Y-96050000D01*
X170075000Y-100600000D02*
X169475000Y-100000000D01*
X172750000Y-100600000D02*
X170075000Y-100600000D01*
X169475000Y-97525000D02*
X170010000Y-96990000D01*
X170010000Y-96990000D02*
X170500000Y-96990000D01*
D60*
X161000000Y-82540000D02*
X157025000Y-82540000D01*
X180675000Y-87375000D02*
X175815000Y-82515000D01*
X168437500Y-108450000D02*
X170255000Y-108450000D01*
X173000000Y-82515000D02*
X169000000Y-82515000D01*
X178750000Y-115000000D02*
X180675000Y-113075000D01*
X175815000Y-82515000D02*
X173000000Y-82515000D01*
X157025000Y-82540000D02*
X157000000Y-82515000D01*
X165000000Y-82540000D02*
X161000000Y-82540000D01*
X176805000Y-115000000D02*
X178750000Y-115000000D01*
X169000000Y-82515000D02*
X165025000Y-82515000D01*
X170255000Y-108450000D02*
X176805000Y-115000000D01*
X180675000Y-113075000D02*
X180675000Y-87375000D01*
X165025000Y-82515000D02*
X165000000Y-82540000D01*
D59*
X147500000Y-106225000D02*
X147500000Y-104675000D01*
X147500000Y-104675000D02*
X147600000Y-104575000D01*
X127245000Y-103675000D02*
X127660000Y-104090000D01*
X126000000Y-103675000D02*
X127245000Y-103675000D01*
D58*
X163668749Y-95050000D02*
X164318749Y-95700000D01*
X157175000Y-95050000D02*
X163668749Y-95050000D01*
X164318749Y-95700000D02*
X165362500Y-95700000D01*
D59*
X145500000Y-109569408D02*
X145500000Y-106225000D01*
X130000000Y-107792894D02*
X132782106Y-110575000D01*
X132782106Y-110575000D02*
X144494408Y-110575000D01*
X144494408Y-110575000D02*
X145500000Y-109569408D01*
X126000000Y-101135000D02*
X126842107Y-101135000D01*
X130000000Y-104292893D02*
X130000000Y-107792894D01*
X126842107Y-101135000D02*
X130000000Y-104292893D01*
X144925000Y-111075000D02*
X146500000Y-109500000D01*
X127405000Y-102405000D02*
X129500000Y-104500000D01*
X129500000Y-104500000D02*
X129500000Y-108000000D01*
X126000000Y-102405000D02*
X127405000Y-102405000D01*
X132575000Y-111075000D02*
X144925000Y-111075000D01*
X129500000Y-108000000D02*
X132575000Y-111075000D01*
X146500000Y-109500000D02*
X146500000Y-106225000D01*
D58*
X164368749Y-93800000D02*
X165362500Y-93800000D01*
X157175000Y-94550000D02*
X163618749Y-94550000D01*
X163618749Y-94550000D02*
X164368749Y-93800000D01*
D60*
X161950000Y-109450000D02*
X162980000Y-110480000D01*
X162980000Y-112500000D02*
X162980000Y-114130000D01*
X170437500Y-102500000D02*
X167300000Y-102500000D01*
X166950000Y-102850000D02*
X167000000Y-102800000D01*
X163000000Y-102850000D02*
X161950000Y-103900000D01*
X162980000Y-114130000D02*
X163200000Y-114350000D01*
X166024999Y-94750000D02*
X165362500Y-94750000D01*
X170437500Y-102500000D02*
X170437500Y-103987500D01*
X168250000Y-97853122D02*
X166475000Y-96078122D01*
X170337500Y-102600000D02*
X170437500Y-102500000D01*
X161950000Y-103900000D02*
X161950000Y-109450000D01*
X166475000Y-95200001D02*
X166024999Y-94750000D01*
X167000000Y-102800000D02*
X168250000Y-101550000D01*
X168250000Y-101550000D02*
X168250000Y-97853122D01*
X167300000Y-102500000D02*
X167000000Y-102800000D01*
X166475000Y-96078122D02*
X166475000Y-95200001D01*
X163000000Y-102850000D02*
X166950000Y-102850000D01*
X170437500Y-103987500D02*
X170450000Y-104000000D01*
X162980000Y-110480000D02*
X162980000Y-112500000D01*
X174862500Y-103500000D02*
X173882500Y-102520000D01*
X172450000Y-106550000D02*
X174862500Y-104137500D01*
X174862500Y-104137500D02*
X174862500Y-103500000D01*
X172032500Y-102520000D02*
X172012500Y-102500000D01*
X173882500Y-102520000D02*
X173500000Y-102520000D01*
X173500000Y-102520000D02*
X172032500Y-102520000D01*
X168437500Y-106550000D02*
X172450000Y-106550000D01*
X113320000Y-91750000D02*
X113320000Y-90180000D01*
X113320000Y-90180000D02*
X116000000Y-87500000D01*
X113460000Y-88465000D02*
X113460000Y-87500000D01*
X112050000Y-89875000D02*
X113460000Y-88465000D01*
X112050000Y-91750000D02*
X112050000Y-89875000D01*
M02*
