M48
; DRILL file {KiCad 8.0.4} date 2024-09-23T19:04:17-0500
; FORMAT={-:-/ absolute / metric / decimal}
; #@! TF.CreationDate,2024-09-23T19:04:17-05:00
; #@! TF.GenerationSoftware,Kicad,Pcbnew,8.0.4
; #@! TF.FileFunction,Plated,1,4,PTH
FMAT,2
METRIC
; #@! TA.AperFunction,Plated,PTH,ComponentDrill
T1C0.200
; #@! TA.AperFunction,Plated,PTH,ViaDrill
T2C0.300
; #@! TA.AperFunction,Plated,PTH,ComponentDrill
T3C0.400
; #@! TA.AperFunction,Plated,PTH,ComponentDrill
T4C0.600
; #@! TA.AperFunction,Plated,PTH,ComponentDrill
T5C1.000
; #@! TA.AperFunction,Plated,PTH,ComponentDrill
T6C1.300
%
G90
G05
T1
X114.56Y-101.3
X114.56Y-102.7
X115.26Y-100.6
X115.26Y-102.0
X115.26Y-103.4
X115.96Y-101.3
X115.96Y-102.7
X116.66Y-100.6
X116.66Y-102.0
X116.66Y-103.4
X117.36Y-101.3
X117.36Y-102.7
T2
X107.45Y-116.1
X107.875Y-93.45
X107.95Y-107.6
X108.685Y-113.0
X109.35Y-116.925
X110.0Y-84.5
X110.225Y-79.15
X110.225Y-112.8
X111.05Y-116.5
X113.825Y-111.95
X123.7Y-77.225
X124.775Y-116.125
X125.525Y-84.1
X127.95Y-106.225
X127.975Y-75.025
X129.05Y-99.825
X129.95Y-113.9
X130.05Y-75.0
X131.5Y-113.875
X132.175Y-119.125
X132.45Y-106.475
X132.475Y-107.525
X132.475Y-108.5
X132.85Y-75.525
X133.075Y-113.775
X133.5Y-119.475
X134.275Y-113.55
X135.05Y-102.775
X135.05Y-103.75
X135.075Y-101.85
X135.075Y-104.75
X135.175Y-119.45
X135.25Y-95.4
X135.55Y-74.7
X136.324Y-94.324
X136.35Y-92.55
X136.45Y-95.425
X136.603Y-93.309
X137.248Y-95.342
X137.5Y-119.55
X137.55Y-91.675
X137.975Y-109.575
X138.525Y-74.325
X138.625Y-114.05
X138.725Y-119.4
X139.325Y-90.975
X139.525Y-89.4
X139.75Y-106.675
X140.768Y-105.095
X141.475Y-114.25
X142.5Y-90.125
X142.55Y-108.2
X142.575Y-107.1
X142.575Y-120.125
X142.8Y-109.725
X143.5Y-86.15
X143.5Y-92.4
X143.5Y-98.275
X143.575Y-103.2
X143.775Y-114.075
X144.0Y-95.05
X144.125Y-101.7
X144.275Y-93.275
X144.4Y-87.975
X144.425Y-98.25
X144.45Y-102.85
X144.775Y-112.7
X145.025Y-104.525
X145.05Y-87.025
X145.125Y-85.125
X145.3Y-92.875
X145.425Y-94.65
X145.6Y-101.35
X145.913Y-89.062
X145.95Y-111.5
X146.025Y-119.05
X146.7Y-87.375
X146.775Y-100.475
X146.85Y-92.525
X147.6Y-104.575
X148.375Y-98.475
X148.575Y-104.1
X148.75Y-74.275
X149.075Y-97.775
X149.225Y-104.75
X149.363Y-118.938
X149.375Y-120.2
X149.675Y-97.236
X150.275Y-96.662
X151.15Y-94.975
X151.225Y-95.95
X151.325Y-74.1
X151.4Y-102.075
X152.2Y-102.825
X152.425Y-84.95
X152.425Y-87.925
X152.6Y-89.475
X152.95Y-88.725
X153.025Y-120.075
X153.075Y-75.1
X153.85Y-112.006
X153.9Y-88.45
X154.075Y-75.75
X154.5Y-119.35
X154.825Y-118.225
X154.925Y-76.625
X155.25Y-87.525
X155.55Y-93.3
X155.55Y-112.325
X155.65Y-110.975
X156.025Y-89.3
X158.75Y-109.825
X158.775Y-108.2
X159.075Y-90.05
X159.25Y-93.95
X160.575Y-118.65
X161.1Y-110.5
X161.975Y-93.275
X162.0Y-91.45
X163.825Y-99.6
X164.175Y-90.075
X165.4Y-111.15
X166.475Y-122.725
X166.5Y-92.65
X167.325Y-111.05
X168.2Y-88.7
X170.125Y-113.575
X170.3Y-90.925
X170.7Y-99.375
X171.85Y-105.325
X172.75Y-100.6
X173.275Y-104.45
X174.675Y-97.975
X174.825Y-91.7
X174.85Y-96.05
T3
X172.475Y-91.7
X172.475Y-92.55
X172.475Y-93.4
X172.475Y-94.25
X172.475Y-95.1
X172.475Y-95.95
X172.475Y-96.8
X172.475Y-97.65
X173.825Y-91.7
X173.825Y-92.55
X173.825Y-93.4
X173.825Y-94.25
X173.825Y-95.1
X173.825Y-95.95
X173.825Y-96.8
X173.825Y-97.65
T5
X110.92Y-87.5
X113.46Y-87.5
X116.0Y-87.5
X118.54Y-87.5
X127.585Y-72.9
X128.7Y-79.975
X128.7Y-82.515
X128.7Y-85.055
X129.89Y-115.475
X130.125Y-72.9
X132.43Y-115.475
X132.55Y-79.97
X132.55Y-82.51
X132.55Y-85.05
X132.665Y-72.9
X134.97Y-115.475
X135.205Y-72.9
X136.4Y-79.97
X136.4Y-82.51
X136.4Y-85.05
X137.51Y-115.475
X137.745Y-72.9
X140.05Y-115.475
X140.275Y-79.97
X140.275Y-82.51
X140.275Y-85.05
X140.285Y-72.9
X142.59Y-115.475
X142.825Y-72.9
X145.13Y-115.475
X145.365Y-72.9
X147.67Y-115.475
X147.905Y-72.9
X150.21Y-115.475
X150.445Y-72.9
X152.75Y-115.475
X152.985Y-72.9
X155.29Y-115.475
X155.525Y-72.9
X157.0Y-79.975
X157.0Y-82.515
X157.0Y-85.055
X157.83Y-115.475
X160.38Y-73.0
X161.0Y-80.0
X161.0Y-82.54
X161.0Y-85.08
X162.92Y-73.0
X165.0Y-80.0
X165.0Y-82.54
X165.0Y-85.08
X165.46Y-73.0
X168.0Y-73.0
X169.0Y-79.975
X169.0Y-82.515
X169.0Y-85.055
X173.0Y-79.975
X173.0Y-82.515
X173.0Y-85.055
T6
X176.805Y-109.92
X176.805Y-115.0
T4
G00X174.205Y-90.35
M15
G01X172.705Y-90.35
M16
G05
G00X174.205Y-99.0
M15
G01X172.705Y-99.0
M16
G05
G00X177.235Y-90.35
M15
G01X176.435Y-90.35
M16
G05
G00X177.235Y-99.0
M15
G01X176.435Y-99.0
M16
G05
M30
