G04 #@! TF.GenerationSoftware,KiCad,Pcbnew,8.0.4*
G04 #@! TF.CreationDate,2024-09-23T19:03:46-05:00*
G04 #@! TF.ProjectId,STM32_board,53544d33-325f-4626-9f61-72642e6b6963,rev?*
G04 #@! TF.SameCoordinates,Original*
G04 #@! TF.FileFunction,Copper,L4,Bot*
G04 #@! TF.FilePolarity,Positive*
%FSLAX46Y46*%
G04 Gerber Fmt 4.6, Leading zero omitted, Abs format (unit mm)*
G04 Created by KiCad (PCBNEW 8.0.4) date 2024-09-23 19:03:46*
%MOMM*%
%LPD*%
G01*
G04 APERTURE LIST*
G04 #@! TA.AperFunction,ComponentPad*
%ADD10R,1.700000X1.700000*%
G04 #@! TD*
G04 #@! TA.AperFunction,ComponentPad*
%ADD11O,1.700000X1.700000*%
G04 #@! TD*
G04 #@! TA.AperFunction,ComponentPad*
%ADD12R,2.600000X2.600000*%
G04 #@! TD*
G04 #@! TA.AperFunction,ComponentPad*
%ADD13C,2.600000*%
G04 #@! TD*
G04 #@! TA.AperFunction,HeatsinkPad*
%ADD14C,0.600000*%
G04 #@! TD*
G04 #@! TA.AperFunction,ComponentPad*
%ADD15O,2.400000X0.900000*%
G04 #@! TD*
G04 #@! TA.AperFunction,ComponentPad*
%ADD16O,1.700000X0.900000*%
G04 #@! TD*
G04 #@! TA.AperFunction,ComponentPad*
%ADD17C,0.700000*%
G04 #@! TD*
G04 #@! TA.AperFunction,ViaPad*
%ADD18C,0.600000*%
G04 #@! TD*
G04 #@! TA.AperFunction,ViaPad*
%ADD19C,0.700000*%
G04 #@! TD*
G04 #@! TA.AperFunction,Conductor*
%ADD20C,0.300000*%
G04 #@! TD*
G04 #@! TA.AperFunction,Conductor*
%ADD21C,0.200000*%
G04 #@! TD*
G04 APERTURE END LIST*
D10*
X128700000Y-79975000D03*
D11*
X128700000Y-82515000D03*
X128700000Y-85055000D03*
D10*
X161000000Y-80000000D03*
D11*
X161000000Y-82540000D03*
X161000000Y-85080000D03*
D10*
X127585000Y-72900000D03*
D11*
X130125000Y-72900000D03*
X132665000Y-72900000D03*
X135205000Y-72900000D03*
X137745000Y-72900000D03*
X140285000Y-72900000D03*
X142825000Y-72900000D03*
X145365000Y-72900000D03*
X147905000Y-72900000D03*
X150445000Y-72900000D03*
X152985000Y-72900000D03*
X155525000Y-72900000D03*
D10*
X129890000Y-115475000D03*
D11*
X132430000Y-115475000D03*
X134970000Y-115475000D03*
X137510000Y-115475000D03*
X140050000Y-115475000D03*
X142590000Y-115475000D03*
X145130000Y-115475000D03*
X147670000Y-115475000D03*
X150210000Y-115475000D03*
X152750000Y-115475000D03*
X155290000Y-115475000D03*
X157830000Y-115475000D03*
D10*
X110920000Y-87500000D03*
D11*
X113460000Y-87500000D03*
X116000000Y-87500000D03*
X118540000Y-87500000D03*
D10*
X165000000Y-80000000D03*
D11*
X165000000Y-82540000D03*
X165000000Y-85080000D03*
D10*
X140275000Y-79970000D03*
D11*
X140275000Y-82510000D03*
X140275000Y-85050000D03*
D12*
X176805000Y-115000000D03*
D13*
X176805000Y-109920000D03*
D10*
X132550000Y-79970000D03*
D11*
X132550000Y-82510000D03*
X132550000Y-85050000D03*
D10*
X169000000Y-79975000D03*
D11*
X169000000Y-82515000D03*
X169000000Y-85055000D03*
D10*
X136400000Y-79970000D03*
D11*
X136400000Y-82510000D03*
X136400000Y-85050000D03*
D10*
X168000000Y-73000000D03*
D11*
X165460000Y-73000000D03*
X162920000Y-73000000D03*
X160380000Y-73000000D03*
D14*
X116660000Y-100600000D03*
X115260000Y-100600000D03*
X117360000Y-101300000D03*
X115960000Y-101300000D03*
X114560000Y-101300000D03*
X116660000Y-102000000D03*
X115260000Y-102000000D03*
X117360000Y-102700000D03*
X115960000Y-102700000D03*
X114560000Y-102700000D03*
X116660000Y-103400000D03*
X115260000Y-103400000D03*
D10*
X157000000Y-79975000D03*
D11*
X157000000Y-82515000D03*
X157000000Y-85055000D03*
D10*
X173000000Y-79975000D03*
D11*
X173000000Y-82515000D03*
X173000000Y-85055000D03*
D15*
X173455000Y-99000000D03*
D16*
X176835000Y-99000000D03*
D15*
X173455000Y-90350000D03*
D16*
X176835000Y-90350000D03*
D17*
X173825000Y-91700000D03*
X173825000Y-92550000D03*
X173825000Y-93400000D03*
X173825000Y-94250000D03*
X173825000Y-95100000D03*
X173825000Y-95950000D03*
X173825000Y-96800000D03*
X173825000Y-97650000D03*
X172475000Y-97650000D03*
X172475000Y-96800000D03*
X172475000Y-95950000D03*
X172475000Y-95100000D03*
X172475000Y-94250000D03*
X172475000Y-93400000D03*
X172475000Y-92550000D03*
X172475000Y-91700000D03*
D18*
X168200000Y-88700000D03*
X164175000Y-90075000D03*
X142500000Y-90125000D03*
X144275000Y-93275000D03*
X142575000Y-107100000D03*
X142800000Y-109725000D03*
X173275000Y-104450000D03*
X171850000Y-105325000D03*
X135075000Y-101850000D03*
X140768154Y-105094816D03*
X144450000Y-102850000D03*
X144125000Y-101700000D03*
X135075000Y-104750000D03*
X135050000Y-103750000D03*
X135050000Y-102775000D03*
X132475000Y-108500000D03*
X132475000Y-107525000D03*
X132450000Y-106475000D03*
X129050000Y-99825000D03*
X135250000Y-95400000D03*
X137247969Y-95341954D03*
X123700000Y-77225000D03*
X160575000Y-118650000D03*
X154825000Y-118225000D03*
X154500000Y-119350000D03*
X153025000Y-120075000D03*
X149375000Y-120200000D03*
X142575000Y-120125000D03*
X152200000Y-102825000D03*
X149363148Y-118938148D03*
X151400000Y-102075000D03*
X146025000Y-119050000D03*
X153850000Y-112005761D03*
X155550000Y-112325000D03*
X149225000Y-104750000D03*
X148575000Y-104100000D03*
X137500000Y-119550000D03*
X135175000Y-119450000D03*
X145600000Y-101350000D03*
X144775000Y-112700000D03*
X146775000Y-100475000D03*
X132175000Y-119125000D03*
X107875000Y-93450000D03*
X110225000Y-79150000D03*
X138725000Y-119400000D03*
X133500000Y-119475000D03*
X152425000Y-84950000D03*
X152425000Y-87925000D03*
X155550000Y-93300000D03*
X159250000Y-93950000D03*
X156025000Y-89300000D03*
X162000000Y-91450000D03*
X161975000Y-93275000D03*
X145025000Y-104525000D03*
X145950000Y-111500000D03*
X108685000Y-113000000D03*
X107450000Y-116100000D03*
X110225000Y-112800000D03*
X111050000Y-116500000D03*
X109350000Y-116925000D03*
X124775000Y-116125000D03*
X145300000Y-92875000D03*
X137550000Y-91675000D03*
X110000000Y-84500000D03*
X125525000Y-84100000D03*
X165400000Y-111150000D03*
X166475000Y-122725000D03*
X143500000Y-86150000D03*
X139525000Y-89400000D03*
X139325000Y-90975000D03*
X143500000Y-92400000D03*
X146700000Y-87375000D03*
X152600000Y-89475000D03*
X146850000Y-92525000D03*
X145913235Y-89061765D03*
X145125000Y-85125000D03*
X151150000Y-94975000D03*
X151225000Y-95950000D03*
X151325000Y-74100000D03*
X148750000Y-74275000D03*
X152950000Y-88725000D03*
X153075000Y-75100000D03*
X153900000Y-88450000D03*
X154075000Y-75750000D03*
X155250000Y-87525000D03*
X154925000Y-76625000D03*
X150275000Y-96661535D03*
X138525000Y-74325000D03*
X135550000Y-74700000D03*
X149675000Y-97235583D03*
X132850000Y-75525000D03*
X149075000Y-97775000D03*
X130050000Y-75000000D03*
X148375000Y-98475000D03*
X127975000Y-75025000D03*
X145425000Y-94650000D03*
X143775000Y-114075000D03*
X136450000Y-95425000D03*
X141475000Y-114250000D03*
X138625000Y-114050000D03*
X136324265Y-94324265D03*
X136602983Y-93308949D03*
X134275000Y-113550000D03*
X136350000Y-92550000D03*
X133075000Y-113775000D03*
X144400000Y-87975000D03*
X131500000Y-113875000D03*
X145050000Y-87025000D03*
X129950000Y-113900000D03*
D19*
X137975000Y-109575000D03*
X142550000Y-108200000D03*
X158775000Y-108200000D03*
X144000000Y-95050000D03*
X127950000Y-106225000D03*
X170700000Y-99375000D03*
X170125000Y-113575000D03*
X170300000Y-90925000D03*
X167325000Y-111050000D03*
X155650000Y-110975000D03*
X174825000Y-91700000D03*
X174675000Y-97975000D03*
X107950000Y-107600000D03*
X144425000Y-98250000D03*
X166500000Y-92650000D03*
X158750000Y-109825000D03*
X161100000Y-110500000D03*
X113825000Y-111950000D03*
X163825000Y-99600000D03*
X143575000Y-103200000D03*
X139750000Y-106675000D03*
X172750000Y-100600000D03*
X174850000Y-96050000D03*
X147600000Y-104575000D03*
D20*
X144775000Y-112700000D02*
X144375000Y-112300000D01*
X145600000Y-102950000D02*
X145600000Y-101350000D01*
X144375000Y-112300000D02*
X144375000Y-104175000D01*
X144375000Y-104175000D02*
X145600000Y-102950000D01*
D21*
X136450000Y-95425000D02*
X136550000Y-95525000D01*
X136550000Y-95525000D02*
X136550000Y-109325000D01*
X136550000Y-109325000D02*
X141475000Y-114250000D01*
D20*
X172475000Y-95100000D02*
X172614950Y-95100000D01*
X172614950Y-95100000D02*
X173464950Y-94250000D01*
X173464950Y-94250000D02*
X173825000Y-94250000D01*
X153950000Y-113025000D02*
X152200000Y-111275000D01*
X152200000Y-111275000D02*
X152200000Y-102825000D01*
X150983909Y-118938148D02*
X153950000Y-115972057D01*
X153950000Y-115972057D02*
X153950000Y-113025000D01*
X149363148Y-118938148D02*
X150983909Y-118938148D01*
X151410000Y-102085000D02*
X151400000Y-102075000D01*
X151410000Y-115972057D02*
X151410000Y-102085000D01*
X148332057Y-119050000D02*
X151410000Y-115972057D01*
X146025000Y-119050000D02*
X148332057Y-119050000D01*
X155550000Y-112325000D02*
X154169239Y-112325000D01*
X154169239Y-112325000D02*
X153850000Y-112005761D01*
X149035000Y-104940000D02*
X149225000Y-104750000D01*
X149010000Y-104940000D02*
X149035000Y-104940000D01*
X148450000Y-104225000D02*
X148575000Y-104100000D01*
X148450000Y-104575000D02*
X148450000Y-104225000D01*
X149010000Y-104940000D02*
X149025000Y-104925000D01*
X149010000Y-115832057D02*
X149010000Y-104940000D01*
X137500000Y-119550000D02*
X139125000Y-117925000D01*
X146917057Y-117925000D02*
X149010000Y-115832057D01*
X141200000Y-117925000D02*
X146917057Y-117925000D01*
X139125000Y-117925000D02*
X141200000Y-117925000D01*
X135175000Y-119450000D02*
X137350000Y-117275000D01*
X141750000Y-117275000D02*
X145457107Y-117275000D01*
X145457107Y-117275000D02*
X146330000Y-116402107D01*
X146330000Y-113285049D02*
X148450000Y-111165049D01*
X146330000Y-116402107D02*
X146330000Y-113285049D01*
X148450000Y-111165049D02*
X148450000Y-104575000D01*
X137350000Y-117275000D02*
X141750000Y-117275000D01*
X143930000Y-115972057D02*
X143930000Y-114977943D01*
X144732943Y-116775000D02*
X143930000Y-115972057D01*
X146775000Y-112132943D02*
X146775000Y-100475000D01*
X145250000Y-116775000D02*
X144732943Y-116775000D01*
X134525000Y-116775000D02*
X145250000Y-116775000D01*
X143930000Y-114977943D02*
X146775000Y-112132943D01*
X132175000Y-119125000D02*
X134525000Y-116775000D01*
X162850000Y-93950000D02*
X163125000Y-93675000D01*
X163125000Y-93675000D02*
X163125000Y-75335000D01*
X159250000Y-93950000D02*
X162850000Y-93950000D01*
X163125000Y-75335000D02*
X165460000Y-73000000D01*
X158200000Y-87125000D02*
X158200000Y-77720000D01*
X156025000Y-89300000D02*
X158200000Y-87125000D01*
X158200000Y-77720000D02*
X162920000Y-73000000D01*
X145950000Y-105450000D02*
X145025000Y-104525000D01*
X145950000Y-111500000D02*
X145950000Y-105450000D01*
X144100000Y-91675000D02*
X145300000Y-92875000D01*
X137550000Y-91675000D02*
X144100000Y-91675000D01*
D21*
X145913235Y-91588235D02*
X146850000Y-92525000D01*
X145913235Y-89061765D02*
X145913235Y-91588235D01*
X151150000Y-76675000D02*
X151150000Y-94975000D01*
X148750000Y-74275000D02*
X151150000Y-76675000D01*
X151325000Y-74100000D02*
X151825000Y-74600000D01*
X151825000Y-95350000D02*
X151225000Y-95950000D01*
X151825000Y-74600000D02*
X151825000Y-95350000D01*
X153075000Y-88600000D02*
X152950000Y-88725000D01*
X153075000Y-75100000D02*
X153075000Y-88600000D01*
X154075000Y-88275000D02*
X153900000Y-88450000D01*
X154075000Y-75750000D02*
X154075000Y-88275000D01*
X154925000Y-87200000D02*
X155250000Y-87525000D01*
X154925000Y-76625000D02*
X154925000Y-87200000D01*
X150275000Y-85187256D02*
X150275000Y-96661535D01*
X138525000Y-74325000D02*
X139412744Y-74325000D01*
X139412744Y-74325000D02*
X150275000Y-85187256D01*
X149675000Y-85152942D02*
X149675000Y-97235583D01*
X136275000Y-75325000D02*
X139847058Y-75325000D01*
X135550000Y-74700000D02*
X135650000Y-74700000D01*
X135650000Y-74700000D02*
X136275000Y-75325000D01*
X139847058Y-75325000D02*
X149675000Y-85152942D01*
X146178186Y-82221814D02*
X149075000Y-85118628D01*
X133050000Y-75725000D02*
X139681372Y-75725000D01*
X149075000Y-85118628D02*
X149075000Y-97775000D01*
X132850000Y-75525000D02*
X133050000Y-75725000D01*
X139681372Y-75725000D02*
X146178186Y-82221814D01*
X130050000Y-75000000D02*
X130050000Y-76534314D01*
X130050000Y-76534314D02*
X130815686Y-77300000D01*
X130815686Y-77300000D02*
X140690686Y-77300000D01*
X140690686Y-77300000D02*
X148375000Y-84984314D01*
X148375000Y-84984314D02*
X148375000Y-98475000D01*
X147600000Y-89900000D02*
X147600000Y-104575000D01*
X127975000Y-75025000D02*
X130750000Y-77800000D01*
X130750000Y-77800000D02*
X140625000Y-77800000D01*
X140625000Y-77800000D02*
X145775000Y-82950000D01*
X145775000Y-82950000D02*
X145775000Y-88075000D01*
X145775000Y-88075000D02*
X147600000Y-89900000D01*
X144133046Y-95941954D02*
X145425000Y-94650000D01*
X137150000Y-95941954D02*
X144133046Y-95941954D01*
X137150000Y-107450000D02*
X137150000Y-95941954D01*
X143775000Y-114075000D02*
X137150000Y-107450000D01*
X135850000Y-111275000D02*
X135850000Y-94798530D01*
X138625000Y-114050000D02*
X135850000Y-111275000D01*
X135850000Y-94798530D02*
X136324265Y-94324265D01*
X134275000Y-113550000D02*
X133675000Y-114150000D01*
X133675000Y-114150000D02*
X133675000Y-96125000D01*
X133675000Y-96125000D02*
X136491051Y-93308949D01*
X136491051Y-93308949D02*
X136602983Y-93308949D01*
X133075000Y-113775000D02*
X133075000Y-95825000D01*
X133075000Y-95825000D02*
X136350000Y-92550000D01*
X144175000Y-87750000D02*
X144400000Y-87975000D01*
X139825000Y-87750000D02*
X144175000Y-87750000D01*
X131500000Y-113875000D02*
X131500000Y-96075000D01*
X131500000Y-96075000D02*
X139825000Y-87750000D01*
X145050000Y-87025000D02*
X139700000Y-87025000D01*
X139700000Y-87025000D02*
X129950000Y-96775000D01*
X129950000Y-96775000D02*
X129950000Y-113900000D01*
D20*
X143425000Y-104925000D02*
X141675000Y-106675000D01*
X143575000Y-104775000D02*
X143425000Y-104925000D01*
X141675000Y-106675000D02*
X139750000Y-106675000D01*
X143575000Y-103200000D02*
X143575000Y-104775000D01*
X174150000Y-100600000D02*
X175375000Y-99375000D01*
X175375000Y-96575000D02*
X174850000Y-96050000D01*
X172750000Y-100600000D02*
X174150000Y-100600000D01*
X175375000Y-99375000D02*
X175375000Y-96575000D01*
M02*
