G04 #@! TF.GenerationSoftware,KiCad,Pcbnew,8.0.4*
G04 #@! TF.CreationDate,2024-09-23T19:03:46-05:00*
G04 #@! TF.ProjectId,STM32_board,53544d33-325f-4626-9f61-72642e6b6963,rev?*
G04 #@! TF.SameCoordinates,Original*
G04 #@! TF.FileFunction,Soldermask,Bot*
G04 #@! TF.FilePolarity,Negative*
%FSLAX46Y46*%
G04 Gerber Fmt 4.6, Leading zero omitted, Abs format (unit mm)*
G04 Created by KiCad (PCBNEW 8.0.4) date 2024-09-23 19:03:46*
%MOMM*%
%LPD*%
G01*
G04 APERTURE LIST*
%ADD10R,1.700000X1.700000*%
%ADD11O,1.700000X1.700000*%
%ADD12C,2.200000*%
%ADD13R,2.600000X2.600000*%
%ADD14C,2.600000*%
%ADD15O,2.400000X0.900000*%
%ADD16O,1.700000X0.900000*%
%ADD17C,0.700000*%
G04 APERTURE END LIST*
D10*
X128700000Y-79975000D03*
D11*
X128700000Y-82515000D03*
X128700000Y-85055000D03*
D12*
X178000000Y-73500000D03*
D10*
X161000000Y-80000000D03*
D11*
X161000000Y-82540000D03*
X161000000Y-85080000D03*
D10*
X127585000Y-72900000D03*
D11*
X130125000Y-72900000D03*
X132665000Y-72900000D03*
X135205000Y-72900000D03*
X137745000Y-72900000D03*
X140285000Y-72900000D03*
X142825000Y-72900000D03*
X145365000Y-72900000D03*
X147905000Y-72900000D03*
X150445000Y-72900000D03*
X152985000Y-72900000D03*
X155525000Y-72900000D03*
D10*
X129890000Y-115475000D03*
D11*
X132430000Y-115475000D03*
X134970000Y-115475000D03*
X137510000Y-115475000D03*
X140050000Y-115475000D03*
X142590000Y-115475000D03*
X145130000Y-115475000D03*
X147670000Y-115475000D03*
X150210000Y-115475000D03*
X152750000Y-115475000D03*
X155290000Y-115475000D03*
X157830000Y-115475000D03*
D10*
X110920000Y-87500000D03*
D11*
X113460000Y-87500000D03*
X116000000Y-87500000D03*
X118540000Y-87500000D03*
D12*
X110000000Y-122500000D03*
X178000000Y-122500000D03*
D10*
X165000000Y-80000000D03*
D11*
X165000000Y-82540000D03*
X165000000Y-85080000D03*
D10*
X140275000Y-79970000D03*
D11*
X140275000Y-82510000D03*
X140275000Y-85050000D03*
D13*
X176805000Y-115000000D03*
D14*
X176805000Y-109920000D03*
D12*
X110000000Y-73500000D03*
D10*
X132550000Y-79970000D03*
D11*
X132550000Y-82510000D03*
X132550000Y-85050000D03*
D10*
X169000000Y-79975000D03*
D11*
X169000000Y-82515000D03*
X169000000Y-85055000D03*
D10*
X136400000Y-79970000D03*
D11*
X136400000Y-82510000D03*
X136400000Y-85050000D03*
D10*
X168000000Y-73000000D03*
D11*
X165460000Y-73000000D03*
X162920000Y-73000000D03*
X160380000Y-73000000D03*
D10*
X157000000Y-79975000D03*
D11*
X157000000Y-82515000D03*
X157000000Y-85055000D03*
D10*
X173000000Y-79975000D03*
D11*
X173000000Y-82515000D03*
X173000000Y-85055000D03*
D15*
X173455000Y-99000000D03*
D16*
X176835000Y-99000000D03*
D15*
X173455000Y-90350000D03*
D16*
X176835000Y-90350000D03*
D17*
X173825000Y-91700000D03*
X173825000Y-92550000D03*
X173825000Y-93400000D03*
X173825000Y-94250000D03*
X173825000Y-95100000D03*
X173825000Y-95950000D03*
X173825000Y-96800000D03*
X173825000Y-97650000D03*
X172475000Y-97650000D03*
X172475000Y-96800000D03*
X172475000Y-95950000D03*
X172475000Y-95100000D03*
X172475000Y-94250000D03*
X172475000Y-93400000D03*
X172475000Y-92550000D03*
X172475000Y-91700000D03*
M02*
